<svg xmlns="http://www.w3.org/2000/svg" xmlns:xlink="http://www.w3.org/1999/xlink" width="512" zoomAndPan="magnify" viewBox="0 0 384 383.999986" height="512" preserveAspectRatio="xMidYMid meet" version="1.2" fill="white"><defs><clipPath id="559864965f"><path d="M 4.078125 6 L 380 6 L 380 380 L 4.078125 380 Z M 4.078125 6 "/></clipPath><clipPath id="00401337df"><path d="M 162 95 L 249 95 L 249 182 L 162 182 Z M 162 95 "/></clipPath><clipPath id="430bd09ea1"><path d="M 236.136719 93.257812 L 250.613281 107.734375 L 174.054688 184.289062 L 159.582031 169.816406 Z M 236.136719 93.257812 "/></clipPath><clipPath id="1f0eda9383"><path d="M 240.382812 97.5 L 246.371094 103.488281 C 247.496094 104.613281 248.128906 106.140625 248.128906 107.734375 C 248.128906 109.324219 247.496094 110.851562 246.371094 111.976562 L 178.335938 180.007812 C 177.210938 181.136719 175.683594 181.765625 174.09375 181.765625 C 172.503906 181.765625 170.976562 181.136719 169.851562 180.007812 L 163.863281 174.019531 C 162.734375 172.894531 162.105469 171.367188 162.105469 169.777344 C 162.105469 168.1875 162.734375 166.660156 163.863281 165.535156 L 231.894531 97.5 C 233.019531 96.375 234.546875 95.742188 236.136719 95.742188 C 237.730469 95.742188 239.257812 96.375 240.382812 97.5 Z M 240.382812 97.5 "/></clipPath><clipPath id="c5d8e402d4"><path d="M 202 141 L 289 141 L 289 228 L 202 228 Z M 202 141 "/></clipPath><clipPath id="d49f862cc0"><path d="M 276.539062 138.753906 L 291.011719 153.230469 L 214.453125 229.789062 L 199.980469 215.3125 Z M 276.539062 138.753906 "/></clipPath><clipPath id="c913a37dda"><path d="M 280.78125 142.996094 L 286.769531 148.988281 C 287.894531 150.113281 288.527344 151.636719 288.527344 153.230469 C 288.527344 154.820312 287.894531 156.347656 286.769531 157.472656 L 218.734375 225.507812 C 217.609375 226.632812 216.082031 227.265625 214.492188 227.265625 C 212.902344 227.265625 211.375 226.632812 210.25 225.507812 L 204.261719 219.515625 C 203.136719 218.390625 202.503906 216.867188 202.503906 215.273438 C 202.503906 213.683594 203.136719 212.15625 204.261719 211.03125 L 272.292969 142.996094 C 273.417969 141.871094 274.945312 141.242188 276.539062 141.242188 C 278.128906 141.242188 279.65625 141.871094 280.78125 142.996094 Z M 280.78125 142.996094 "/></clipPath></defs><g id="3a665b85d9"><g clip-rule="nonzero" clip-path="url(#559864965f)"><path style=" stroke:none;fill-rule:nonzero;fill:#000000;fill-opacity:1;" d="M 6.628906 252.984375 L 32.609375 227.027344 L 32.625 227.042969 C 33.710938 225.960938 35.199219 225.277344 36.847656 225.238281 L 100.1875 223.667969 C 100.199219 223.667969 100.199219 223.667969 100.207031 223.667969 C 103.230469 220.140625 106.441406 216.652344 109.910156 213.191406 L 144.363281 178.757812 L 15.957031 112.535156 C 15.386719 112.242188 14.855469 111.851562 14.386719 111.375 C 11.988281 108.941406 12.019531 105.023438 14.460938 102.628906 L 48.667969 68.992188 C 49.921875 67.570312 51.820312 66.738281 53.851562 66.914062 L 80.863281 69.28125 L 100.300781 49.851562 C 104.382812 45.773438 109.761719 43.726562 115.132812 43.726562 C 120.507812 43.726562 125.886719 45.773438 129.96875 49.851562 C 134.046875 53.929688 136.097656 59.308594 136.097656 64.679688 C 136.097656 67.859375 135.292969 71.003906 133.863281 73.921875 L 153.214844 75.613281 L 172.664062 56.183594 C 176.742188 52.105469 182.125 50.058594 187.496094 50.058594 C 192.851562 50.058594 198.222656 52.105469 202.304688 56.183594 L 202.695312 56.585938 C 206.535156 60.621094 208.453125 65.820312 208.453125 71.011719 C 208.453125 74.191406 207.636719 77.335938 206.207031 80.253906 L 239.597656 83.171875 C 239.703125 83.179688 239.785156 83.246094 239.898438 83.253906 L 275.628906 47.542969 C 289.546875 33.632812 302.695312 22.464844 317.988281 15.308594 C 333.496094 8.050781 350.839844 5.074219 372.785156 7.769531 C 375.714844 8.125 377.914062 10.472656 378.203125 13.289062 C 380.871094 35.167969 377.894531 52.460938 370.640625 67.933594 C 363.480469 83.21875 352.308594 96.359375 338.398438 110.261719 L 302.996094 145.648438 C 303.117188 146.050781 303.3125 146.421875 303.351562 146.851562 L 306.269531 180.21875 C 309.183594 178.789062 312.335938 177.984375 315.519531 177.984375 C 320.890625 177.984375 326.269531 180.023438 330.351562 184.109375 L 330.351562 184.136719 C 334.433594 188.214844 336.480469 193.585938 336.480469 198.945312 C 336.480469 204.136719 334.5625 209.335938 330.726562 213.371094 L 330.351562 213.773438 L 310.914062 233.199219 L 312.605469 252.542969 C 315.519531 251.113281 318.671875 250.308594 321.855469 250.308594 C 327.226562 250.308594 332.605469 252.355469 336.6875 256.433594 C 340.769531 260.511719 342.816406 265.890625 342.816406 271.261719 C 342.816406 276.628906 340.777344 282.007812 336.6875 286.085938 L 317.25 305.515625 L 319.617188 332.511719 C 319.792969 334.539062 318.960938 336.4375 317.539062 337.691406 L 283.882812 371.898438 C 281.488281 374.332031 277.566406 374.371094 275.132812 371.976562 C 274.648438 371.496094 274.261719 370.964844 273.972656 370.402344 L 207.320312 241.289062 L 172.683594 275.910156 C 168.703125 279.886719 164.691406 283.46875 160.628906 286.855469 L 159.121094 347.421875 C 159.082031 349.078125 158.402344 350.5625 157.316406 351.640625 L 157.332031 351.65625 L 131.351562 377.617188 C 128.929688 380.039062 125 380.039062 122.585938 377.617188 C 121.546875 376.578125 120.957031 375.265625 120.804688 373.921875 L 108.207031 311.351562 C 99.441406 312.53125 90.070312 312.566406 79.898438 311.324219 C 76.96875 310.96875 74.769531 308.621094 74.480469 305.804688 C 73.1875 295.214844 73.320312 285.527344 74.648438 276.460938 L 10.351562 263.523438 C 9.003906 263.375 7.683594 262.785156 6.65625 261.746094 C 4.203125 259.324219 4.203125 255.398438 6.628906 252.984375 Z M 119.316406 72.640625 L 121.199219 70.730469 C 122.855469 69.074219 123.6875 66.878906 123.6875 64.667969 C 123.6875 62.472656 122.855469 60.273438 121.199219 58.609375 C 119.542969 56.953125 117.332031 56.121094 115.132812 56.121094 C 112.933594 56.121094 110.734375 56.953125 109.070312 58.609375 L 96.988281 70.683594 L 117.886719 72.507812 Z M 191.679688 78.960938 L 193.5625 77.082031 C 195.21875 75.425781 196.050781 73.21875 196.050781 71.003906 C 196.050781 68.898438 195.300781 66.800781 193.804688 65.183594 L 193.570312 64.929688 C 191.914062 63.285156 189.707031 62.453125 187.496094 62.453125 C 185.296875 62.453125 183.097656 63.285156 181.433594 64.941406 L 169.351562 77.015625 L 189.855469 78.8125 Z M 193.46875 91.570312 L 155.03125 88.214844 C 155.03125 88.214844 155.03125 88.214844 155.023438 88.214844 L 121.105469 85.25 C 121.105469 85.25 121.105469 85.25 121.097656 85.25 L 82.667969 81.890625 C 82.667969 81.890625 82.667969 81.890625 82.660156 81.890625 L 55.601562 79.523438 L 29.210938 105.460938 L 153.535156 169.582031 L 228.507812 94.648438 Z M 321.816406 204.761719 C 323.304688 203.136719 324.0625 201.039062 324.0625 198.945312 C 324.0625 196.738281 323.230469 194.53125 321.574219 192.882812 C 319.917969 191.226562 317.707031 190.394531 315.507812 190.394531 C 313.300781 190.394531 311.109375 191.226562 309.445312 192.882812 L 307.535156 194.765625 L 308.292969 203.386719 L 309.492188 217.0625 Z M 327.898438 277.324219 C 329.554688 275.667969 330.390625 273.46875 330.390625 271.261719 C 330.390625 269.0625 329.554688 266.863281 327.898438 265.199219 C 326.242188 263.542969 324.035156 262.710938 321.835938 262.710938 C 319.636719 262.710938 317.4375 263.542969 315.769531 265.199219 L 313.859375 267.109375 L 314.851562 278.464844 L 315.808594 289.398438 Z M 281.039062 357.140625 L 306.992188 330.761719 L 304.625 303.71875 C 304.625 303.71875 304.625 303.71875 304.625 303.710938 L 303.386719 289.546875 L 298.296875 231.394531 L 298.175781 229.953125 L 291.773438 156.871094 L 216.492188 232.105469 Z M 130.726562 360.695312 L 146.804688 344.625 L 148.011719 296.132812 C 142.660156 299.613281 137.191406 302.738281 131.410156 305.132812 C 127.804688 306.628906 124.109375 307.882812 120.300781 308.921875 Z M 86.28125 299.519531 C 101.621094 300.753906 114.75 298.628906 126.65625 293.699219 C 139.953125 288.191406 151.941406 279.082031 163.894531 267.136719 L 329.621094 101.496094 C 342.675781 88.449219 353.066406 76.296875 359.4375 62.695312 C 365.175781 50.453125 367.796875 36.710938 366.382812 19.566406 C 349.226562 18.144531 335.480469 20.761719 323.230469 26.496094 C 309.621094 32.867188 297.464844 43.257812 284.417969 56.296875 L 118.679688 221.945312 C 106.738281 233.882812 97.625 245.875 92.101562 259.167969 C 87.171875 271.066406 85.046875 284.1875 86.28125 299.519531 Z M 77.222656 264.386719 C 78.195312 260.992188 79.316406 257.660156 80.664062 254.421875 C 83.296875 248.082031 86.75 242.09375 90.679688 236.257812 L 39.644531 237.519531 L 23.566406 253.589844 Z M 77.222656 264.386719 "/></g><g clip-rule="nonzero" clip-path="url(#00401337df)"><g clip-rule="nonzero" clip-path="url(#430bd09ea1)"><g clip-rule="nonzero" clip-path="url(#1f0eda9383)"><path style=" stroke:none;fill-rule:nonzero;fill:#ffffff;fill-opacity:1;" d="M 236.136719 93.257812 L 250.613281 107.734375 L 174.113281 184.234375 L 159.636719 169.757812 Z M 236.136719 93.257812 "/></g></g></g><g clip-rule="nonzero" clip-path="url(#c5d8e402d4)"><g clip-rule="nonzero" clip-path="url(#d49f862cc0)"><g clip-rule="nonzero" clip-path="url(#c913a37dda)"><path style=" stroke:none;fill-rule:nonzero;fill:#ffffff;fill-opacity:1;" d="M 276.539062 138.753906 L 291.011719 153.230469 L 214.511719 229.730469 L 200.035156 215.257812 Z M 276.539062 138.753906 "/></g></g></g></g></svg>