<svg xmlns="http://www.w3.org/2000/svg" xmlns:xlink="http://www.w3.org/1999/xlink" width="512" zoomAndPan="magnify" viewBox="0 0 384 383.999986" height="512" preserveAspectRatio="xMidYMid meet" version="1.2" fill="white"><g id="cf30ef978e"><path style=" stroke:none;fill-rule:nonzero;fill:#000000;fill-opacity:1;" d="M 321.828125 230.605469 C 326.75 223.824219 370.84375 161.152344 352.1875 108.320312 C 351.210938 106.015625 327.191406 51.632812 288.636719 32 C 283.183594 28.5 238.378906 2.617188 140.035156 25.929688 C 137.066406 26.550781 67.972656 43.257812 56.585938 138.726562 C 56.363281 140.277344 56.671875 141.828125 57.425781 143.246094 L 66.15625 159.644531 C 58.222656 174.757812 41.160156 205.917969 33.050781 214.472656 C 31.546875 216.066406 30.835938 218.148438 31.011719 220.320312 C 31.144531 222.449219 32.210938 224.398438 33.847656 225.683594 C 33.847656 225.683594 47.855469 236.71875 56.140625 243.234375 L 49.980469 258.394531 C 48.5625 262.070312 50.113281 266.28125 53.703125 268.054688 L 59.023438 270.757812 L 56.320312 275.101562 C 54.28125 278.558594 55.167969 282.992188 58.492188 285.339844 L 70.855469 294.160156 L 72.140625 309.230469 C 72.097656 311.003906 72.230469 326.335938 82.777344 333.5625 C 87.121094 336.441406 94.609375 339.011719 105.910156 334.535156 L 155.859375 317.472656 C 157.496094 329.484375 159.359375 352.175781 153.597656 371.101562 C 152.886719 373.539062 153.375 376.242188 154.972656 378.195312 C 156.476562 380.011719 158.695312 380.984375 160.953125 380.984375 C 161.21875 380.984375 161.441406 380.984375 161.707031 380.984375 L 320.5 365.074219 C 323.160156 364.808594 325.507812 363.167969 326.703125 360.730469 C 327.8125 358.292969 327.636719 355.414062 326.128906 353.195312 C 325.816406 352.621094 288.414062 295.046875 321.828125 230.605469 Z M 170.882812 364.632812 C 174.558594 344.15625 172.210938 323.011719 170.617188 312.421875 L 187.191406 306.792969 C 198.046875 303.246094 218.125 290.261719 215.863281 266.726562 C 215.421875 262.515625 211.832031 259.414062 207.53125 259.8125 C 203.324219 260.210938 200.21875 263.976562 200.617188 268.1875 C 202.214844 285.386719 183.15625 291.945312 182.359375 292.253906 L 159.582031 300.011719 C 159.492188 300.054688 159.402344 300.054688 159.226562 300.1875 L 100.59375 320.175781 C 98.199219 321.152344 93.8125 322.527344 91.464844 320.929688 C 88.449219 318.890625 87.472656 312.15625 87.472656 308.742188 L 85.878906 289.328125 C 85.65625 287.070312 84.503906 285.03125 82.644531 283.746094 L 73.160156 277.007812 L 76.484375 271.601562 C 77.589844 269.828125 77.902344 267.613281 77.28125 265.484375 C 76.660156 263.488281 75.285156 261.71875 73.382812 260.742188 L 66.910156 257.550781 L 72.582031 243.679688 C 73.824219 240.488281 72.894531 236.851562 70.144531 234.726562 C 66.421875 231.84375 56.140625 223.734375 49.40625 218.503906 C 61.859375 201.394531 79.410156 167.445312 81.625 163.101562 C 82.777344 160.886719 82.734375 158.226562 81.582031 156.011719 L 72.050781 138.195312 C 82.910156 55.933594 140.964844 41.441406 143.449219 40.820312 C 239.085938 18.128906 280.082031 44.675781 280.480469 44.941406 C 280.746094 45.121094 281.054688 45.339844 281.457031 45.472656 C 315.09375 62.40625 337.917969 113.949219 337.917969 113.949219 C 354.359375 160.398438 309.597656 221.339844 309.199219 222.003906 C 308.933594 222.269531 308.710938 222.625 308.535156 222.980469 C 279.105469 279.003906 296.964844 329.617188 307.46875 351.023438 Z M 170.882812 364.632812 "/></g></svg>