<svg xmlns="http://www.w3.org/2000/svg" xmlns:xlink="http://www.w3.org/1999/xlink" width="512" zoomAndPan="magnify" viewBox="0 0 384 383.999986" height="512" preserveAspectRatio="xMidYMid meet" version="1.2" fill="white"><defs><clipPath id="96bf2e309f"><path d="M 50 65.441406 L 188 65.441406 L 188 331.691406 L 50 331.691406 Z M 50 65.441406 "/></clipPath><clipPath id="aadba048ca"><path d="M 196 65.441406 L 334 65.441406 L 334 331.691406 L 196 331.691406 Z M 196 65.441406 "/></clipPath><clipPath id="a2bb5f13c6"><path d="M 6.351562 116 L 154 116 L 154 330 L 6.351562 330 Z M 6.351562 116 "/></clipPath><clipPath id="06454fce78"><path d="M 230 116 L 377.601562 116 L 377.601562 330 L 230 330 Z M 230 116 "/></clipPath></defs><g id="c1d8356727"><g clip-rule="nonzero" clip-path="url(#96bf2e309f)"><path style=" stroke:none;fill-rule:nonzero;fill:#000000;fill-opacity:1;" d="M 54.210938 286.035156 C 65.234375 286.695312 85.761719 288.773438 109.066406 295.203125 C 132.375 301.628906 158.4375 312.414062 180.648438 330.324219 C 181.890625 331.324219 183.585938 331.523438 185.023438 330.832031 C 186.460938 330.144531 187.371094 328.699219 187.371094 327.105469 L 187.371094 110.757812 C 187.371094 109.457031 186.761719 108.238281 185.726562 107.457031 C 179.726562 102.925781 165.339844 93.0625 143.242188 84.027344 C 121.152344 74.992188 91.34375 66.796875 54.585938 65.644531 C 53.46875 65.609375 52.386719 66.03125 51.585938 66.808594 C 50.78125 67.589844 50.328125 68.660156 50.328125 69.777344 L 50.328125 281.90625 C 50.328125 284.089844 52.035156 285.902344 54.210938 286.035156 Z M 179.109375 112.84375 L 179.109375 318.773438 C 157.324219 302.976562 133.046875 293.246094 111.261719 287.234375 C 89.703125 281.289062 70.566406 278.960938 58.589844 278.046875 L 58.589844 74.097656 C 92.285156 75.691406 119.667969 83.324219 140.121094 91.683594 C 159.5625 99.632812 172.746094 108.226562 179.109375 112.84375 Z M 179.109375 112.84375 "/></g><g clip-rule="nonzero" clip-path="url(#aadba048ca)"><path style=" stroke:none;fill-rule:nonzero;fill:#000000;fill-opacity:1;" d="M 198.929688 330.824219 C 200.367188 331.511719 202.0625 331.3125 203.304688 330.3125 C 225.515625 312.402344 251.578125 301.625 274.886719 295.199219 C 298.191406 288.773438 318.714844 286.695312 329.742188 286.035156 C 331.917969 285.902344 333.625 284.089844 333.625 281.90625 L 333.625 69.777344 C 333.625 68.660156 333.175781 67.589844 332.371094 66.808594 C 331.566406 66.03125 330.484375 65.609375 329.367188 65.644531 C 292.453125 66.792969 262.628906 74.980469 240.5625 84.011719 C 218.496094 93.042969 204.183594 102.910156 198.214844 107.449219 C 197.183594 108.234375 196.582031 109.441406 196.582031 110.742188 L 196.582031 327.09375 C 196.582031 328.6875 197.492188 330.136719 198.929688 330.824219 Z M 243.691406 91.664062 C 264.109375 83.308594 291.511719 75.679688 325.363281 74.097656 L 325.363281 278.046875 C 313.386719 278.960938 294.25 281.285156 272.691406 287.226562 C 250.90625 293.238281 226.628906 302.964844 204.84375 318.761719 L 204.84375 112.816406 C 211.167969 108.199219 224.277344 99.609375 243.691406 91.667969 Z M 243.691406 91.664062 "/></g><g clip-rule="nonzero" clip-path="url(#a2bb5f13c6)"><path style=" stroke:none;fill-rule:nonzero;fill:#000000;fill-opacity:1;" d="M 148.0625 329.472656 C 150.078125 329.941406 152.125 328.847656 152.859375 326.910156 C 153.589844 324.972656 152.78125 322.792969 150.960938 321.808594 C 126.472656 308.542969 100.414062 301.875 80.359375 298.464844 C 70.332031 296.765625 61.800781 295.886719 55.71875 295.433594 C 52.675781 295.203125 50.242188 295.082031 48.542969 295.019531 C 47.691406 294.988281 47.023438 294.96875 46.550781 294.957031 C 46.316406 294.953125 46.128906 294.949219 45.992188 294.949219 C 45.851562 294.945312 45.78125 294.945312 45.71875 294.945312 L 41.113281 294.945312 L 41.113281 120.664062 C 41.113281 118.519531 39.476562 116.730469 37.339844 116.542969 C 34.105469 116.265625 30.652344 116.152344 27.183594 116.152344 C 21.15625 116.152344 15.082031 116.488281 10.144531 116.886719 C 7.996094 117.058594 6.347656 118.847656 6.347656 121.007812 L 6.347656 316.109375 C 6.347656 317.289062 6.847656 318.410156 7.730469 319.195312 C 8.613281 319.980469 9.785156 320.351562 10.957031 320.214844 C 24.589844 318.617188 38.050781 317.929688 51.109375 317.929688 C 88.496094 317.929688 122.585938 323.5625 148.0625 329.472656 Z M 32.851562 124.546875 L 32.851562 299.082031 C 32.851562 300.171875 33.292969 301.234375 34.0625 302.003906 C 34.832031 302.777344 35.894531 303.214844 36.984375 303.214844 L 45.722656 303.214844 C 45.992188 303.21875 49.589844 303.257812 55.519531 303.710938 C 64.417969 304.390625 78.613281 306.011719 94.925781 309.832031 C 99.957031 311.007812 105.1875 312.398438 110.527344 314.027344 C 92.402344 311.429688 72.300781 309.664062 51.109375 309.660156 C 39.230469 309.660156 27.011719 310.222656 14.605469 311.496094 L 14.605469 124.855469 C 18.53125 124.601562 22.902344 124.425781 27.183594 124.425781 C 29.113281 124.425781 31.015625 124.464844 32.851562 124.546875 Z M 32.851562 124.546875 "/></g><g clip-rule="nonzero" clip-path="url(#06454fce78)"><path style=" stroke:none;fill-rule:nonzero;fill:#000000;fill-opacity:1;" d="M 373.808594 116.886719 C 368.871094 116.488281 362.792969 116.152344 356.761719 116.152344 C 353.292969 116.152344 349.84375 116.261719 346.613281 116.542969 C 344.476562 116.730469 342.839844 118.515625 342.839844 120.664062 L 342.839844 294.9375 L 338.238281 294.945312 L 338.242188 294.945312 C 338.179688 294.945312 338.109375 294.945312 337.96875 294.949219 C 335.855469 294.976562 321.441406 295.308594 301.625 298.8125 C 281.8125 302.324219 256.59375 308.988281 232.878906 321.828125 C 231.058594 322.816406 230.25 324.992188 230.984375 326.929688 C 231.714844 328.867188 233.765625 329.960938 235.78125 329.492188 C 261.257812 323.574219 295.378906 317.929688 332.824219 317.929688 C 345.886719 317.929688 359.351562 318.617188 372.996094 320.214844 C 374.167969 320.351562 375.339844 319.980469 376.222656 319.195312 C 377.105469 318.410156 377.605469 317.289062 377.605469 316.105469 L 377.605469 121.007812 C 377.605469 118.847656 375.957031 117.058594 373.808594 116.882812 Z M 273.457031 314.019531 C 284.707031 310.59375 295.484375 308.234375 304.90625 306.636719 C 314.652344 304.984375 322.949219 304.128906 328.832031 303.683594 C 331.773438 303.464844 334.113281 303.347656 335.726562 303.285156 C 336.53125 303.253906 337.15625 303.238281 337.585938 303.226562 C 337.800781 303.222656 337.96875 303.21875 338.078125 303.21875 L 338.210938 303.214844 L 338.242188 303.214844 C 338.242188 303.214844 338.246094 303.214844 338.246094 303.214844 L 338.25 303.214844 L 346.976562 303.203125 C 349.253906 303.203125 351.101562 301.351562 351.101562 299.070312 L 351.101562 124.546875 C 352.9375 124.464844 354.835938 124.421875 356.761719 124.421875 C 361.042969 124.421875 365.417969 124.601562 369.347656 124.855469 L 369.347656 311.5 C 356.933594 310.222656 344.707031 309.660156 332.824219 309.660156 C 311.648438 309.664062 291.566406 311.425781 273.457031 314.019531 Z M 273.457031 314.019531 "/></g></g></svg>