<svg xmlns="http://www.w3.org/2000/svg" xmlns:xlink="http://www.w3.org/1999/xlink" width="512" zoomAndPan="magnify" viewBox="0 0 384 383.999986" height="512" preserveAspectRatio="xMidYMid meet" version="1.2" fill="white"><defs><clipPath id="7aaf389646"><path d="M 6 14.039062 L 382 14.039062 L 382 374 L 6 374 Z M 6 14.039062 "/></clipPath></defs><g id="6130b2fbd7"><g clip-rule="nonzero" clip-path="url(#7aaf389646)"><path style=" stroke:none;fill-rule:nonzero;fill:#231f20;fill-opacity:1;" d="M 347.605469 172.339844 L 284.582031 236.414062 C 282.722656 237.867188 283.066406 239.847656 283.304688 241.269531 L 295.878906 329.703125 C 298.382812 344.613281 289.507812 351.015625 276.15625 343.933594 C 276.15625 343.933594 218.042969 313.433594 199.082031 302.628906 C 196.429688 301.117188 191.398438 301.203125 188.597656 302.8125 C 167.695312 314.8125 131.253906 333.910156 111.953125 343.933594 C 98.542969 350.898438 89.726562 344.613281 92.230469 329.703125 L 104.800781 241.269531 C 105.042969 239.847656 105.378906 237.867188 103.523438 236.414062 L 40.503906 172.339844 C 29.648438 161.824219 32.992188 151.402344 47.9375 149.175781 L 136.203125 130.136719 C 136.203125 130.136719 137.359375 129.78125 137.839844 128.800781 L 181.535156 51.328125 C 184.953125 44.339844 189.515625 40.964844 194.050781 41.15625 C 198.59375 40.964844 203.15625 44.339844 206.574219 51.328125 L 250.269531 128.800781 C 250.75 129.78125 251.90625 130.136719 251.90625 130.136719 L 340.171875 149.175781 C 355.117188 151.402344 358.460938 161.824219 347.605469 172.339844 Z M 379.402344 149.351562 C 374.835938 135.121094 362.363281 125.332031 345.164062 122.476562 L 268.539062 105.945312 L 230.542969 38.578125 C 222.605469 22.953125 209.449219 13.996094 194.425781 13.996094 L 193.683594 13.996094 C 178.660156 13.996094 165.503906 22.953125 157.570312 38.574219 L 119.570312 105.945312 L 42.945312 122.476562 C 25.746094 125.332031 13.273438 135.121094 8.707031 149.351562 C 4.070312 163.792969 8.707031 179.210938 21.308594 191.53125 L 76.488281 247.636719 L 65.417969 325.507812 C 62.523438 343.277344 68.398438 354.671875 73.835938 361.105469 C 80.824219 369.367188 90.839844 373.917969 102.035156 373.917969 C 109.386719 373.917969 116.929688 371.941406 124.453125 368.035156 C 141.480469 359.191406 172.300781 343.054688 194.0625 330.910156 C 216.84375 343.4375 258.59375 365.375 263.515625 367.960938 C 271.035156 371.949219 278.621094 373.976562 286.0625 373.976562 C 297.242188 373.976562 307.253906 369.414062 314.25 361.148438 C 319.699219 354.703125 325.589844 343.289062 322.71875 325.667969 L 311.621094 247.636719 L 366.691406 191.640625 C 379.402344 179.210938 384.035156 163.792969 379.402344 149.351562 "/></g></g></svg>