<svg xmlns="http://www.w3.org/2000/svg" xmlns:xlink="http://www.w3.org/1999/xlink" width="512" zoomAndPan="magnify" viewBox="0 0 384 383.999986" height="512" preserveAspectRatio="xMidYMid meet" version="1.2"><defs><clipPath id="9c074f21af"><path d="M 131 17.484375 L 341 17.484375 L 341 211 L 131 211 Z M 131 17.484375 "/></clipPath><clipPath id="e6605b0364"><path d="M 5.003906 115 L 127 115 L 127 236.484375 L 5.003906 236.484375 Z M 5.003906 115 "/></clipPath><clipPath id="e35fa9f5d0"><path d="M 262 128 L 383 128 L 383 236.484375 L 262 236.484375 Z M 262 128 "/></clipPath><clipPath id="68ad8ed609"><path d="M 157 75 L 272 75 L 272 144 L 157 144 Z M 157 75 "/></clipPath><clipPath id="b98fb6f8ce"><path d="M 264.3125 73.667969 L 273.371094 92.023438 L 164.164062 145.917969 L 155.105469 127.5625 Z M 264.3125 73.667969 "/></clipPath><clipPath id="2ee9667980"><path d="M 266.96875 79.046875 L 270.714844 86.644531 C 271.421875 88.070312 271.53125 89.71875 271.019531 91.226562 C 270.507812 92.734375 269.417969 93.976562 267.992188 94.679688 L 169.574219 143.246094 C 168.148438 143.949219 166.5 144.058594 164.992188 143.546875 C 163.488281 143.035156 162.246094 141.949219 161.539062 140.519531 L 157.792969 132.925781 C 157.085938 131.5 156.980469 129.851562 157.488281 128.34375 C 158 126.835938 159.089844 125.59375 160.515625 124.890625 L 258.933594 76.324219 C 260.359375 75.617188 262.007812 75.511719 263.515625 76.023438 C 265.023438 76.53125 266.265625 77.621094 266.96875 79.046875 Z M 266.96875 79.046875 "/></clipPath><clipPath id="55a0e00f20"><path d="M 152 130 L 189 130 L 189 166 L 152 166 Z M 152 130 "/></clipPath><clipPath id="46079f7474"><path d="M 164.6875 127.699219 L 191.28125 147.035156 L 176.328125 167.601562 L 149.734375 148.269531 Z M 164.6875 127.699219 "/></clipPath><clipPath id="2fd9d5e8cf"><path d="M 169.539062 131.230469 L 186.394531 143.480469 C 187.679688 144.417969 188.542969 145.824219 188.792969 147.398438 C 189.039062 148.96875 188.652344 150.574219 187.71875 151.863281 L 179.820312 162.722656 C 178.886719 164.011719 177.476562 164.875 175.90625 165.121094 C 174.335938 165.371094 172.726562 164.984375 171.441406 164.050781 L 154.585938 151.796875 C 153.300781 150.859375 152.4375 149.453125 152.1875 147.878906 C 151.941406 146.308594 152.328125 144.703125 153.261719 143.414062 L 161.160156 132.554688 C 162.09375 131.265625 163.503906 130.402344 165.074219 130.15625 C 166.644531 129.90625 168.253906 130.292969 169.539062 131.230469 Z M 169.539062 131.230469 "/></clipPath><clipPath id="34ba37c2b9"><path d="M 258 76 L 280 76 L 280 97 L 258 97 Z M 258 76 "/></clipPath><clipPath id="4a39889052"><path d="M 267.269531 73.664062 L 281.785156 88.179688 L 271.015625 98.953125 L 256.5 84.4375 Z M 267.269531 73.664062 "/></clipPath><clipPath id="1c56a8ac75"><path d="M 271.511719 77.910156 L 277.503906 83.898438 C 278.628906 85.023438 279.257812 86.550781 279.257812 88.140625 C 279.257812 89.730469 278.628906 91.257812 277.503906 92.382812 L 275.21875 94.667969 C 274.09375 95.792969 272.566406 96.425781 270.972656 96.425781 C 269.382812 96.425781 267.855469 95.792969 266.730469 94.667969 L 260.742188 88.679688 C 259.617188 87.554688 258.984375 86.027344 258.984375 84.4375 C 258.984375 82.84375 259.617188 81.320312 260.742188 80.195312 L 263.027344 77.910156 C 264.152344 76.78125 265.679688 76.152344 267.269531 76.152344 C 268.863281 76.152344 270.386719 76.78125 271.511719 77.910156 Z M 271.511719 77.910156 "/></clipPath><clipPath id="6346f13bb7"><path d="M 154 147 L 175 147 L 175 168 L 154 168 Z M 154 147 "/></clipPath><clipPath id="f31035e9f0"><path d="M 162.90625 144.585938 L 177.421875 159.101562 L 166.648438 169.871094 L 152.132812 155.355469 Z M 162.90625 144.585938 "/></clipPath><clipPath id="2858a3280e"><path d="M 167.148438 148.828125 L 173.136719 154.816406 C 174.261719 155.941406 174.894531 157.46875 174.894531 159.058594 C 174.894531 160.652344 174.261719 162.175781 173.136719 163.300781 L 170.851562 165.585938 C 169.726562 166.710938 168.199219 167.34375 166.609375 167.34375 C 165.019531 167.34375 163.492188 166.710938 162.367188 165.585938 L 156.378906 159.597656 C 155.253906 158.472656 154.621094 156.945312 154.621094 155.355469 C 154.621094 153.765625 155.253906 152.238281 156.378906 151.113281 L 158.664062 148.828125 C 159.789062 147.703125 161.3125 147.070312 162.90625 147.070312 C 164.496094 147.070312 166.023438 147.703125 167.148438 148.828125 Z M 167.148438 148.828125 "/></clipPath></defs><g id="77424f24cf"><g clip-rule="nonzero" clip-path="url(#9c074f21af)"><path style=" stroke:none;fill-rule:nonzero;fill:#000000;fill-opacity:1;" d="M 247.914062 210.117188 L 131.699219 210.117188 L 131.699219 188.9375 L 133.132812 187.511719 C 133.390625 187.253906 158.222656 162.28125 158.222656 139.640625 C 158.222656 123.703125 188.046875 111.296875 233.539062 94.1875 C 253.097656 86.839844 282.648438 75.726562 284.652344 70.28125 C 285.484375 60.878906 259.589844 41.496094 241.8125 31.402344 L 228.617188 23.921875 L 290.128906 17.441406 L 291.679688 18.65625 C 296.578125 22.503906 339.601562 56.984375 340.683594 81.554688 C 340.929688 87.277344 338.933594 92.296875 334.898438 96.078125 L 333.589844 97.304688 L 331.792969 97.394531 C 331.402344 97.402344 293.179688 99.457031 268.433594 127.535156 C 251.960938 146.214844 244.917969 172.230469 247.492188 204.875 Z M 141.425781 200.386719 L 237.472656 200.386719 C 235.816406 167.40625 243.804688 140.707031 261.226562 121.003906 C 285.621094 93.398438 320.457031 88.597656 329.3125 87.808594 C 330.546875 86.195312 331.078125 84.316406 330.96875 81.984375 C 330.25 65.574219 300.492188 38.246094 287.207031 27.535156 L 258.9375 30.519531 C 273.917969 40.386719 295.582031 57.21875 294.296875 71.34375 C 293.355469 81.628906 273.988281 89.375 236.953125 103.304688 C 211.140625 113.007812 167.945312 129.242188 167.945312 139.640625 C 167.945312 163.144531 147.191406 186.796875 141.421875 192.929688 L 141.421875 200.386719 Z M 141.425781 200.386719 "/></g><path style=" stroke:none;fill-rule:nonzero;fill:#000000;fill-opacity:1;" d="M 152.976562 178.039062 L 143.542969 175.695312 C 147.269531 160.59375 140.96875 138.113281 128.550781 122.238281 C 119.179688 110.25 107.625 103.644531 96.003906 103.644531 C 59.777344 103.644531 15.128906 64.898438 13.25 63.246094 L 11.589844 61.789062 L 11.589844 43.410156 L 73.195312 43.410156 L 115.316406 75.046875 L 143.59375 75.046875 C 151.753906 43.410156 183.074219 43.410156 216.152344 43.410156 C 252.171875 43.410156 282.382812 75.222656 283.652344 76.582031 L 276.5625 83.238281 C 276.277344 82.945312 247.917969 53.144531 216.152344 53.144531 C 179.6875 53.144531 157.09375 54.472656 152.285156 80.789062 L 151.558594 84.78125 L 112.074219 84.78125 L 69.945312 53.144531 L 21.3125 53.144531 L 21.3125 57.328125 C 29.59375 64.199219 67.054688 93.914062 96.007812 93.914062 C 110.675781 93.914062 124.953125 101.84375 136.214844 116.234375 C 150.535156 134.570312 157.441406 159.988281 152.976562 178.039062 Z M 152.976562 178.039062 "/><g clip-rule="nonzero" clip-path="url(#e6605b0364)"><path style=" stroke:none;fill-rule:nonzero;fill:#000000;fill-opacity:1;" d="M 65.722656 236.523438 C 32.476562 236.523438 5.425781 209.429688 5.425781 176.136719 C 5.425781 142.855469 32.476562 115.773438 65.722656 115.773438 C 86.816406 115.773438 106.03125 126.578125 117.109375 144.671875 L 120.425781 150.078125 L 67.105469 165.917969 C 65.214844 166.484375 61.023438 168.496094 60.121094 171.03125 C 59.65625 172.355469 60.128906 174.109375 61.5625 176.222656 C 61.695312 176.378906 65.625 180.636719 96.804688 180.636719 C 104.816406 180.636719 112.984375 180.363281 120.167969 180.011719 L 126.140625 179.71875 L 125.210938 185.632812 C 120.539062 215.121094 95.523438 236.523438 65.722656 236.523438 Z M 65.722656 125.511719 C 37.84375 125.511719 15.152344 148.222656 15.152344 176.140625 C 15.152344 204.066406 37.84375 226.796875 65.722656 226.796875 C 88.679688 226.796875 108.246094 211.65625 114.320312 190.015625 C 108.6875 190.222656 102.710938 190.375 96.804688 190.375 C 63.789062 190.375 56.382812 185.960938 53.496094 181.660156 C 49.445312 175.640625 49.890625 170.753906 50.980469 167.722656 C 53.800781 159.890625 63.285156 156.898438 64.355469 156.585938 L 105.121094 144.472656 C 95.5625 132.496094 81.25 125.511719 65.722656 125.511719 Z M 65.722656 125.511719 "/></g><path style=" stroke:none;fill-rule:nonzero;fill:#000000;fill-opacity:1;" d="M 57.480469 92.570312 L 13.324219 85.835938 L 17.683594 63.582031 L 27.214844 65.445312 L 24.816406 77.738281 L 58.945312 82.953125 Z M 57.480469 92.570312 "/><path style=" stroke:none;fill-rule:nonzero;fill:#000000;fill-opacity:1;" d="M 295.148438 102.285156 L 323.726562 165.195312 L 314.878906 169.226562 L 286.300781 106.3125 Z M 295.148438 102.285156 "/><g clip-rule="nonzero" clip-path="url(#e35fa9f5d0)"><path style=" stroke:none;fill-rule:nonzero;fill:#000000;fill-opacity:1;" d="M 322.605469 236.523438 C 289.359375 236.523438 262.3125 209.429688 262.3125 176.136719 C 262.3125 163.890625 265.976562 152.078125 272.90625 141.980469 L 274.640625 139.449219 L 311.148438 145.207031 L 359.71875 128.511719 L 361.835938 130.339844 C 375.230469 141.855469 382.910156 158.554688 382.910156 176.136719 C 382.914062 209.429688 355.867188 236.523438 322.605469 236.523438 Z M 279.28125 150.042969 C 274.535156 157.925781 272.035156 166.882812 272.035156 176.140625 C 272.035156 204.066406 294.726562 226.796875 322.605469 226.796875 C 350.5 226.796875 373.191406 204.066406 373.191406 176.140625 C 373.191406 162.308594 367.511719 149.125 357.527344 139.5625 L 312.023438 155.214844 Z M 279.28125 150.042969 "/></g><path style=" stroke:none;fill-rule:nonzero;fill:#000000;fill-opacity:1;" d="M 322.605469 191.960938 C 314.292969 191.960938 307.523438 185.195312 307.523438 176.867188 C 307.523438 168.539062 314.289062 161.761719 322.605469 161.761719 C 330.925781 161.761719 337.6875 168.539062 337.6875 176.867188 C 337.6875 185.195312 330.929688 191.960938 322.605469 191.960938 Z M 322.605469 171.5 C 319.648438 171.5 317.246094 173.898438 317.246094 176.867188 C 317.246094 179.824219 319.648438 182.222656 322.605469 182.222656 C 325.5625 182.222656 327.960938 179.824219 327.960938 176.867188 C 327.964844 173.902344 325.5625 171.5 322.605469 171.5 Z M 322.605469 171.5 "/><path style=" stroke:none;fill-rule:nonzero;fill:#000000;fill-opacity:1;" d="M 312.023438 155.214844 L 264.214844 147.667969 L 268.082031 141.433594 C 280.242188 121.824219 301.191406 110.109375 324.121094 110.109375 C 340.875 110.109375 356.882812 116.46875 369.175781 128.011719 L 375.070312 133.539062 Z M 280.730469 140.414062 L 311.152344 145.214844 L 355.96875 129.820312 C 346.628906 123.34375 335.578125 119.847656 324.113281 119.847656 C 307.105469 119.847656 291.363281 127.417969 280.730469 140.414062 Z M 280.730469 140.414062 "/><path style=" stroke:none;fill-rule:nonzero;fill:#000000;fill-opacity:1;" d="M 322.886719 218.808594 C 299.378906 218.808594 280.257812 199.679688 280.257812 176.175781 C 280.257812 164.132812 285.5 152.558594 294.625 144.410156 L 296.34375 142.871094 L 311.152344 145.21875 L 337.664062 136.105469 L 339.375 136.828125 C 355.226562 143.5 365.464844 158.945312 365.464844 176.179688 C 365.464844 199.679688 346.359375 218.808594 322.886719 218.808594 Z M 299.464844 153.222656 C 293.332031 159.433594 289.976562 167.507812 289.976562 176.175781 C 289.976562 194.316406 304.738281 209.074219 322.886719 209.074219 C 340.996094 209.074219 355.746094 194.316406 355.746094 176.175781 C 355.746094 163.480469 348.546875 152.035156 337.25 146.539062 L 312.023438 155.21875 Z M 299.464844 153.222656 "/><path style=" stroke:none;fill-rule:nonzero;fill:#000000;fill-opacity:1;" d="M 98.277344 190.5 C 77.617188 190.5 58.125 188.554688 53.492188 181.675781 C 49.441406 175.644531 49.882812 170.757812 50.976562 167.726562 C 53.796875 159.894531 63.28125 156.90625 64.351562 156.589844 L 141.992188 133.519531 L 144.765625 142.855469 L 67.105469 165.929688 C 65.214844 166.496094 61.023438 168.507812 60.121094 171.042969 C 59.65625 172.367188 60.128906 174.121094 61.554688 176.238281 C 65.636719 181.070312 102.867188 182.132812 142.875 178.523438 L 143.746094 188.21875 C 132.800781 189.199219 115.152344 190.5 98.277344 190.5 Z M 98.277344 190.5 "/><path style=" stroke:none;fill-rule:nonzero;fill:#000000;fill-opacity:1;" d="M 65.371094 218.808594 C 41.863281 218.808594 22.746094 199.679688 22.746094 176.175781 C 22.746094 152.640625 41.863281 133.5 65.371094 133.5 C 78.234375 133.5 90.300781 139.371094 98.476562 149.609375 L 102.984375 155.265625 L 67.105469 165.925781 C 65.214844 166.492188 61.023438 168.503906 60.121094 171.039062 C 59.65625 172.363281 60.128906 174.117188 61.5625 176.234375 C 61.6875 176.386719 65.625 180.625 96.851562 180.625 L 108.074219 180.511719 L 106.503906 186.667969 C 101.695312 205.582031 84.777344 218.808594 65.371094 218.808594 Z M 65.371094 143.230469 C 47.226562 143.230469 32.464844 158.007812 32.464844 176.175781 C 32.464844 194.316406 47.226562 209.074219 65.371094 209.074219 C 78.152344 209.074219 89.523438 201.636719 94.886719 190.359375 C 63.511719 190.1875 56.332031 185.886719 53.492188 181.675781 C 49.441406 175.644531 49.882812 170.757812 50.976562 167.730469 C 53.796875 159.894531 63.28125 156.90625 64.351562 156.589844 L 85.492188 150.308594 C 79.773438 145.75 72.738281 143.230469 65.371094 143.230469 Z M 65.371094 143.230469 "/><g clip-rule="nonzero" clip-path="url(#68ad8ed609)"><g clip-rule="nonzero" clip-path="url(#b98fb6f8ce)"><g clip-rule="nonzero" clip-path="url(#2ee9667980)"><path style=" stroke:none;fill-rule:nonzero;fill:#ffffff;fill-opacity:1;" d="M 264.3125 73.667969 L 273.371094 92.023438 L 164.164062 145.917969 L 155.105469 127.5625 Z M 264.3125 73.667969 "/></g></g></g><g clip-rule="nonzero" clip-path="url(#55a0e00f20)"><g clip-rule="nonzero" clip-path="url(#46079f7474)"><g clip-rule="nonzero" clip-path="url(#2fd9d5e8cf)"><path style=" stroke:none;fill-rule:nonzero;fill:#ffffff;fill-opacity:1;" d="M 164.6875 127.699219 L 191.28125 147.035156 L 176.328125 167.601562 L 149.734375 148.269531 Z M 164.6875 127.699219 "/></g></g></g><g clip-rule="nonzero" clip-path="url(#34ba37c2b9)"><g clip-rule="nonzero" clip-path="url(#4a39889052)"><g clip-rule="nonzero" clip-path="url(#1c56a8ac75)"><path style=" stroke:none;fill-rule:nonzero;fill:#ffffff;fill-opacity:1;" d="M 267.269531 73.664062 L 281.742188 88.140625 L 270.972656 98.910156 L 256.5 84.4375 Z M 267.269531 73.664062 "/></g></g></g><g clip-rule="nonzero" clip-path="url(#6346f13bb7)"><g clip-rule="nonzero" clip-path="url(#f31035e9f0)"><g clip-rule="nonzero" clip-path="url(#2858a3280e)"><path style=" stroke:none;fill-rule:nonzero;fill:#ffffff;fill-opacity:1;" d="M 162.90625 144.585938 L 177.378906 159.058594 L 166.609375 169.828125 L 152.132812 155.355469 Z M 162.90625 144.585938 "/></g></g></g></g></svg>