<svg xmlns="http://www.w3.org/2000/svg" xmlns:xlink="http://www.w3.org/1999/xlink" width="512" zoomAndPan="magnify" viewBox="0 0 384 383.999986" height="512" preserveAspectRatio="xMidYMid meet" version="1.2" fill="white"><defs><clipPath id="d484084263"><path d="M 4 27 L 383 27 L 383 359.667969 L 4 359.667969 Z M 4 27 "/></clipPath></defs><g id="c855505287"><g clip-rule="nonzero" clip-path="url(#d484084263)"><path style=" stroke:none;fill-rule:nonzero;fill:#1a1a1a;fill-opacity:1;" d="M 193.507812 35.355469 C 191.808594 35.355469 190.109375 35.9375 188.71875 37.097656 L 14.050781 183.167969 C 11.878906 184.984375 11.136719 187.59375 12.066406 190.148438 C 12.859375 192.324219 15.054688 194.652344 18.839844 194.652344 L 49.433594 194.652344 C 58.707031 194.652344 66.253906 202.660156 66.253906 212.503906 L 66.253906 341.675781 C 66.253906 347.398438 70.441406 352.054688 75.59375 352.054688 L 311.425781 352.054688 C 316.578125 352.054688 320.765625 347.398438 320.765625 341.675781 L 320.765625 212.503906 C 320.765625 202.660156 328.3125 194.652344 337.585938 194.652344 L 368.179688 194.652344 C 371.964844 194.652344 374.160156 192.324219 374.953125 190.148438 C 375.882812 187.59375 375.136719 184.984375 372.96875 183.171875 L 372.96875 183.167969 L 304.113281 125.589844 C 302.796875 124.488281 302.046875 122.875 302.046875 121.164062 L 302.046875 58.003906 C 302.046875 54.933594 299.546875 52.441406 296.472656 52.441406 L 268.007812 52.441406 C 264.933594 52.441406 262.433594 54.933594 262.433594 58.003906 L 262.433594 78.375 C 262.433594 80.640625 261.15625 82.644531 259.101562 83.601562 C 257.042969 84.5625 254.6875 84.253906 252.949219 82.800781 L 198.300781 37.097656 C 196.910156 35.9375 195.210938 35.355469 193.507812 35.355469 Z M 311.425781 359.523438 L 75.59375 359.523438 C 66.320312 359.523438 58.773438 351.515625 58.773438 341.675781 L 58.773438 212.503906 C 58.773438 206.78125 54.582031 202.121094 49.433594 202.121094 L 18.839844 202.121094 C 12.539062 202.121094 7.121094 198.421875 5.039062 192.695312 C 3.019531 187.148438 4.632812 181.304688 9.25 177.441406 L 183.917969 31.371094 C 189.472656 26.722656 197.542969 26.722656 203.101562 31.371094 L 254.953125 74.734375 L 254.953125 58.003906 C 254.953125 50.820312 260.808594 44.972656 268.007812 44.972656 L 296.472656 44.972656 C 303.671875 44.972656 309.523438 50.820312 309.523438 58.003906 L 309.523438 120.371094 L 377.769531 177.441406 C 382.386719 181.304688 384 187.148438 381.980469 192.695312 C 379.898438 198.421875 374.480469 202.121094 368.179688 202.121094 L 337.585938 202.121094 C 332.433594 202.121094 328.246094 206.78125 328.246094 212.503906 L 328.246094 341.675781 C 328.246094 351.515625 320.699219 359.523438 311.425781 359.523438 "/></g></g></svg>