<svg xmlns="http://www.w3.org/2000/svg" xmlns:xlink="http://www.w3.org/1999/xlink" width="512" zoomAndPan="magnify" viewBox="0 0 384 383.999986" height="512" preserveAspectRatio="xMidYMid meet" version="1.2" fill="white"><defs><clipPath id="9502e38e46"><path d="M 51.730469 12.167969 L 341.980469 12.167969 L 341.980469 372 L 51.730469 372 Z M 51.730469 12.167969 "/></clipPath><clipPath id="d9edfbb35c"><path d="M 131.832031 81.34375 L 153.253906 81.34375 L 153.253906 129.707031 L 131.832031 129.707031 Z M 131.832031 81.34375 "/></clipPath><clipPath id="4ab9c4ef1b"><path d="M 145.726562 91.351562 C 150.976562 114.675781 150.523438 121.199219 151.050781 124.050781 C 151.351562 125.324219 152.25 126.226562 151.949219 126.675781 C 151.648438 127.125 150.226562 127.351562 149.699219 126.976562 C 148.875 126.449219 149.324219 124.648438 148.574219 122.699219 C 146.773438 117.675781 139.5 104.101562 136.574219 97.199219 C 134.625 92.550781 132.601562 87.898438 132.148438 85.425781 C 131.925781 84.375 131.699219 83.773438 132.074219 83.101562 C 132.523438 82.273438 134.324219 81.226562 135.449219 81.375 C 136.648438 81.449219 138.074219 82.949219 138.976562 84.074219 C 139.949219 85.351562 141.074219 87.449219 141 88.726562 C 140.925781 89.550781 140.25 90.601562 139.648438 90.824219 C 139.050781 91.050781 137.699219 90.601562 137.25 90.148438 C 136.949219 89.851562 136.800781 89.324219 136.800781 88.875 C 136.875 88.351562 137.25 87.523438 137.773438 87.148438 C 138.226562 86.851562 139.199219 86.773438 139.726562 87 C 140.101562 87.074219 140.550781 87.449219 140.699219 87.824219 C 140.925781 88.425781 140.851562 89.851562 140.398438 90.375 C 139.949219 90.824219 138.675781 91.125 137.925781 90.75 C 136.726562 90.074219 135.074219 84.148438 135.074219 84.148438 C 135.148438 84.148438 150.523438 115.726562 152.476562 121.875 C 153.074219 123.824219 153.375 124.5 153.148438 125.773438 C 152.925781 127.125 151.875 129.523438 150.976562 129.601562 C 150.148438 129.75 148.648438 128.175781 147.898438 126.601562 C 146.476562 123.449219 147.601562 115.875 146.625 110.398438 C 145.648438 104.398438 141.300781 95.175781 141.824219 92.175781 C 142.050781 91.050781 142.800781 90.148438 143.476562 90 C 144.074219 89.925781 145.726562 91.351562 145.726562 91.351562 "/></clipPath><clipPath id="a2225bdc7c"><path d="M 128.402344 54.164062 L 265 54.164062 L 265 183 L 128.402344 183 Z M 128.402344 54.164062 "/></clipPath><clipPath id="ab8fd882db"><path d="M 128.796875 107.277344 C 129.996094 100.902344 130.671875 99.402344 131.421875 97.980469 C 132.246094 96.554688 133.21875 95.203125 134.34375 94.078125 C 135.46875 92.878906 136.746094 91.828125 138.171875 90.929688 C 139.519531 90.105469 141.46875 89.203125 142.519531 88.828125 C 143.046875 88.679688 143.34375 88.980469 143.796875 88.605469 C 146.046875 86.804688 149.269531 69.480469 155.195312 64.003906 C 160.746094 58.902344 169.746094 57.328125 177.546875 55.828125 C 185.421875 54.328125 194.34375 54.554688 202.296875 55.078125 C 209.570312 55.527344 216.246094 56.878906 223.21875 58.304688 C 230.269531 59.730469 238.519531 60.179688 244.296875 63.703125 C 249.84375 67.003906 254.34375 72.628906 257.644531 78.402344 C 261.320312 84.777344 263.71875 93.253906 264.695312 100.605469 C 265.59375 107.429688 264.246094 114.253906 263.871094 121.078125 C 263.496094 127.828125 264.320312 134.355469 262.59375 141.179688 C 260.71875 148.753906 257.34375 158.355469 252.019531 164.355469 C 246.921875 170.128906 238.820312 173.730469 231.695312 176.730469 C 224.71875 179.652344 216.996094 181.378906 209.796875 182.277344 C 202.894531 183.179688 196.144531 183.027344 189.246094 182.503906 C 182.195312 181.828125 174.46875 181.230469 167.945312 178.605469 C 161.421875 176.054688 154.820312 172.152344 150.246094 167.054688 C 145.445312 161.804688 142.671875 154.230469 140.046875 147.328125 C 137.421875 140.277344 136.445312 130.527344 134.496094 124.980469 C 133.296875 121.527344 131.71875 119.128906 130.746094 116.804688 C 130.070312 115.003906 129.546875 113.730469 129.171875 112.152344 C 128.871094 110.578125 128.796875 107.277344 128.796875 107.277344 M 190.894531 135.777344 C 201.320312 139.980469 216.695312 138.480469 220.445312 133.378906 C 224.195312 128.277344 222.695312 113.652344 218.71875 108.402344 C 215.121094 103.753906 199.96875 101.578125 199.746094 101.878906 C 199.746094 101.878906 199.820312 101.953125 199.894531 102.027344 C 200.121094 102.402344 200.570312 103.679688 200.945312 104.429688 C 201.320312 105.179688 201.921875 106.003906 202.21875 106.679688 C 202.371094 107.128906 202.296875 107.503906 202.445312 107.953125 C 202.59375 108.328125 202.820312 108.628906 202.96875 109.152344 C 203.121094 109.828125 203.046875 110.804688 203.121094 111.703125 C 203.269531 112.527344 203.644531 113.503906 203.644531 114.179688 C 203.644531 114.703125 203.496094 115.078125 203.496094 115.527344 C 203.421875 115.902344 203.570312 116.277344 203.570312 116.804688 C 203.496094 117.480469 203.121094 118.453125 202.96875 119.277344 C 202.746094 120.105469 202.820312 121.152344 202.59375 121.828125 C 202.445312 122.277344 202.144531 122.578125 201.996094 123.027344 C 201.84375 123.402344 201.921875 123.777344 201.695312 124.230469 C 201.394531 124.902344 200.71875 125.652344 200.34375 126.402344 C 199.894531 127.152344 199.59375 128.128906 199.144531 128.730469 C 198.84375 129.105469 198.546875 129.328125 198.246094 129.628906 C 197.945312 130.003906 197.871094 130.378906 197.570312 130.753906 C 197.046875 131.277344 196.144531 131.730469 195.546875 132.328125 C 194.871094 132.929688 194.269531 133.753906 193.746094 134.128906 C 193.296875 134.429688 192.921875 134.503906 192.546875 134.730469 C 192.171875 134.953125 191.871094 135.328125 191.570312 135.554688 C 191.34375 135.703125 190.894531 135.777344 190.894531 135.777344 "/></clipPath></defs><g id="e5ca7bfe68"><g clip-rule="nonzero" clip-path="url(#9502e38e46)"><path style=" stroke:none;fill-rule:nonzero;fill:#000000;fill-opacity:1;" d="M 237.175781 277.917969 C 272.40625 222.46875 310.90625 160.921875 310.90625 127.386719 C 310.90625 63.835938 259.199219 12.136719 195.640625 12.136719 C 132.070312 12.136719 80.355469 63.835938 80.355469 127.386719 C 80.355469 158.984375 120.382812 223.886719 154.449219 278.105469 C 104.554688 282.816406 51.902344 297.035156 51.902344 323.886719 C 51.902344 338.503906 67.730469 350.839844 97.671875 359.558594 C 182.121094 384.140625 341.808594 370.3125 341.808594 323.886719 C 341.808594 296.597656 288.066406 282.429688 237.175781 277.917969 Z M 195.640625 315.078125 C 165.445312 264.40625 95.855469 163.367188 95.855469 127.386719 C 95.855469 72.382812 140.617188 27.632812 195.640625 27.632812 C 250.648438 27.632812 295.40625 72.382812 295.40625 127.386719 C 295.40625 165.722656 226.160156 263.960938 195.640625 315.078125 Z M 195.640625 315.078125 "/></g><path style=" stroke:none;fill-rule:nonzero;fill:#000000;fill-opacity:1;" d="M 195.640625 67.539062 C 164.867188 67.539062 139.835938 92.566406 139.835938 123.332031 C 139.835938 154.085938 164.867188 179.105469 195.640625 179.105469 C 226.402344 179.105469 251.429688 154.085938 251.429688 123.332031 C 251.429688 92.566406 226.402344 67.539062 195.640625 67.539062 Z M 195.640625 163.609375 C 173.414062 163.609375 155.335938 145.542969 155.335938 123.332031 C 155.335938 101.113281 173.414062 83.035156 195.640625 83.035156 C 217.855469 83.035156 235.925781 101.113281 235.925781 123.332031 C 235.925781 145.542969 217.855469 163.609375 195.640625 163.609375 Z M 195.640625 163.609375 "/><g clip-rule="nonzero" clip-path="url(#d9edfbb35c)"><g clip-rule="nonzero" clip-path="url(#4ab9c4ef1b)"><path style=" stroke:none;fill-rule:nonzero;fill:#ffffff;fill-opacity:1;" d="M 129.074219 78.375 L 156.226562 78.375 L 156.226562 132.675781 L 129.074219 132.675781 Z M 129.074219 78.375 "/></g></g><g clip-rule="nonzero" clip-path="url(#a2225bdc7c)"><g clip-rule="nonzero" clip-path="url(#ab8fd882db)"><path style=" stroke:none;fill-rule:nonzero;fill:#ffffff;fill-opacity:1;" d="M 125.796875 52.078125 L 267.558594 52.078125 L 267.558594 185.503906 L 125.796875 185.503906 Z M 125.796875 52.078125 "/></g></g></g></svg>