<svg xmlns="http://www.w3.org/2000/svg" xmlns:xlink="http://www.w3.org/1999/xlink" width="512" zoomAndPan="magnify" viewBox="0 0 384 383.999986" height="512" preserveAspectRatio="xMidYMid meet" version="1.2"><defs><clipPath id="82c9e230a4"><path d="M 0 4.105469 L 382 4.105469 L 382 247 L 0 247 Z M 0 4.105469 "/></clipPath></defs><g id="d887dc69cf"><g clip-rule="nonzero" clip-path="url(#82c9e230a4)"><path style=" stroke:none;fill-rule:nonzero;fill:#11002a;fill-opacity:1;" d="M 370.378906 45.859375 C 367.777344 45.777344 365.167969 45.839844 362.566406 45.839844 C 273.703125 45.839844 184.832031 45.839844 95.96875 45.839844 C 92.570312 45.839844 89.171875 45.839844 85.5625 45.839844 C 82.554688 34.460938 79.664062 23.867188 76.972656 13.222656 C 75.722656 8.28125 73.347656 4.335938 67.863281 4.292969 C 48.179688 4.101562 28.492188 4.101562 8.816406 4.28125 C 3.453125 4.335938 0.109375 7.59375 0.0351562 13.070312 C -0.0351562 18.5 3.074219 21.648438 8.511719 22.15625 C 11.09375 22.398438 13.710938 22.300781 16.324219 22.300781 C 30.769531 22.308594 45.207031 22.308594 60.152344 22.308594 C 61.085938 25.285156 61.765625 27.1875 62.273438 29.144531 C 79.710938 96.902344 97.136719 164.65625 114.53125 232.417969 C 117.847656 245.359375 118.652344 246.09375 132.292969 246.09375 C 192.789062 246.101562 253.292969 246.113281 313.789062 246.101562 C 324.347656 246.101562 328.617188 243.554688 328.851562 237.207031 C 329.097656 230.542969 324.59375 227.675781 313.570312 227.667969 C 262.046875 227.648438 210.523438 227.660156 158.992188 227.660156 C 152.042969 227.660156 145.082031 227.957031 138.164062 227.46875 C 135.808594 227.304688 132.128906 225.628906 131.558594 223.839844 C 128.941406 215.644531 127.207031 207.164062 124.796875 197.328125 C 132.644531 197.328125 139.515625 197.328125 146.394531 197.328125 C 205.132812 197.328125 263.859375 197.335938 322.597656 197.316406 C 333.800781 197.316406 335.050781 196.382812 338.695312 185.59375 C 343.695312 170.792969 348.652344 155.976562 353.640625 141.167969 C 362.683594 114.292969 371.808594 87.441406 380.765625 60.539062 C 383.9375 50.945312 380.4375 46.183594 370.378906 45.859375 Z M 347.414062 102.332031 C 339.574219 125.617188 331.570312 148.859375 323.957031 172.21875 C 322.335938 177.1875 319.933594 178.984375 314.695312 178.917969 C 279.441406 178.492188 244.175781 178.246094 208.921875 178.175781 C 192.253906 178.140625 175.585938 178.675781 158.921875 178.820312 C 147.390625 178.917969 135.84375 178.992188 124.328125 178.601562 C 122.40625 178.539062 119.351562 176.324219 118.890625 174.558594 C 109.265625 138.277344 99.945312 101.90625 90.347656 64.738281 C 180.28125 64.738281 269.433594 64.738281 359.972656 64.738281 C 355.613281 77.785156 351.535156 90.074219 347.414062 102.332031 Z M 347.414062 102.332031 "/></g><path style=" stroke:none;fill-rule:nonzero;fill:#11002a;fill-opacity:1;" d="M 284.097656 265.535156 C 258.050781 265.578125 236.671875 287.304688 237.0625 313.332031 C 237.441406 339.246094 258.585938 359.839844 284.542969 359.585938 C 310.570312 359.332031 331.234375 338.386719 331.035156 312.453125 C 330.835938 286.5625 309.753906 265.488281 284.097656 265.535156 Z M 283.707031 341.378906 C 267.984375 341.152344 255.304688 328.058594 255.53125 312.289062 C 255.757812 296.375 268.539062 283.976562 284.515625 284.160156 C 300.402344 284.351562 312.917969 297.199219 312.710938 313.09375 C 312.5 328.820312 299.378906 341.605469 283.707031 341.378906 Z M 283.707031 341.378906 "/><path style=" stroke:none;fill-rule:nonzero;fill:#11002a;fill-opacity:1;" d="M 149.8125 265.5625 C 124.390625 264.738281 102.558594 285.628906 101.878906 311.4375 C 101.1875 337.460938 121.40625 358.886719 147.308594 359.566406 C 173.738281 360.265625 195.28125 339.800781 195.796875 313.503906 C 196.296875 287.824219 175.742188 266.394531 149.8125 265.5625 Z M 148.308594 341.367188 C 132.582031 341.078125 119.902344 327.964844 120.140625 312.242188 C 120.382812 296.4375 133.253906 284.023438 149.242188 284.179688 C 165.074219 284.332031 177.554688 297.199219 177.355469 313.175781 C 177.171875 328.882812 164.003906 341.660156 148.308594 341.367188 Z M 148.308594 341.367188 "/></g></svg>