<svg xmlns="http://www.w3.org/2000/svg" xmlns:xlink="http://www.w3.org/1999/xlink" width="512" zoomAndPan="magnify" viewBox="0 0 384 383.999986" height="512" preserveAspectRatio="xMidYMid meet" version="1.2"><defs><clipPath id="c419dfc862"><path d="M 0.75 20 L 378 20 L 378 345.703125 L 0.75 345.703125 Z M 0.75 20 "/></clipPath></defs><g id="4c356a227d"><g clip-rule="nonzero" clip-path="url(#c419dfc862)"><path style=" stroke:none;fill-rule:nonzero;fill:#000000;fill-opacity:1;" d="M 0.75 257.828125 C 0.75 259.734375 1.890625 261.449219 3.648438 262.1875 C 4.308594 262.453125 68.796875 288.496094 111.3125 223.15625 C 118.324219 232.273438 131.621094 248.089844 149.542969 262.890625 C 148.6875 272.046875 144.039062 311.164062 125.652344 335.464844 C 124.667969 336.765625 124.425781 338.484375 125.007812 340.007812 C 125.597656 341.53125 126.929688 342.648438 128.53125 342.949219 C 128.914062 343.023438 142.394531 345.472656 161.542969 345.472656 C 197.15625 345.472656 252.34375 336.953125 279.316406 288.929688 C 314.257812 273.332031 347.125 238.640625 377.386719 185.15625 C 378.203125 183.710938 378.203125 181.941406 377.386719 180.5 C 347.128906 127.023438 314.269531 92.335938 279.332031 76.734375 C 237.871094 2.871094 129.628906 22.496094 128.53125 22.703125 C 126.929688 23.007812 125.597656 24.125 125.007812 25.644531 C 124.425781 27.171875 124.667969 28.890625 125.652344 30.191406 C 144.050781 54.503906 148.691406 93.652344 149.546875 102.78125 C 131.625 117.578125 118.316406 133.390625 111.3125 142.5 C 68.804688 77.164062 4.308594 103.203125 3.648438 103.46875 C 1.890625 104.207031 0.75 105.921875 0.75 107.824219 C 0.75 151.171875 28.230469 174.03125 42.148438 182.828125 C 28.230469 191.625 0.75 214.484375 0.75 257.828125 Z M 137.601562 334.707031 C 151.472656 312.457031 156.5625 283.65625 158.296875 269.722656 C 179.59375 285.457031 206.1875 298.492188 235.921875 298.492188 C 237.707031 298.492188 239.507812 298.445312 241.308594 298.351562 C 249.175781 297.933594 256.945312 296.507812 264.632812 294.285156 C 229.582031 341.058594 160.226562 337.351562 137.601562 334.707031 Z M 367.855469 182.828125 C 335.246094 239.710938 300 273.894531 262.804688 284.988281 C 247.597656 258.882812 238.898438 221.910156 238.898438 182.828125 C 238.898438 143.746094 247.597656 106.773438 262.804688 80.667969 C 300 91.757812 335.246094 125.945312 367.855469 182.828125 Z M 137.601562 30.949219 C 160.222656 28.308594 229.582031 24.605469 264.632812 71.371094 C 256.945312 69.148438 249.175781 67.722656 241.308594 67.304688 C 209.449219 65.574219 180.894531 79.230469 158.296875 95.929688 C 156.5625 81.996094 151.472656 53.199219 137.601562 30.949219 Z M 53.714844 187.175781 C 55.453125 186.433594 56.585938 184.722656 56.585938 182.828125 C 56.585938 180.933594 55.453125 179.222656 53.714844 178.480469 C 53.285156 178.300781 12.019531 160.210938 10.242188 111.113281 C 22.945312 106.941406 72.695312 95.253906 106.445312 152.554688 C 106.757812 153.515625 107.371094 154.378906 108.257812 154.960938 C 108.644531 155.222656 112.136719 157.359375 115.078125 153.257812 C 124.648438 139.871094 175.484375 73.203125 240.808594 76.734375 C 244.980469 76.957031 249.121094 77.554688 253.246094 78.339844 C 238.082031 105.683594 229.46875 143.328125 229.46875 182.828125 C 229.46875 222.328125 238.082031 259.96875 253.246094 287.316406 C 249.121094 288.101562 244.980469 288.699219 240.808594 288.921875 C 175.707031 292.382812 124.644531 225.78125 115.078125 212.398438 C 113.675781 210.445312 112.152344 209.90625 110.894531 209.90625 C 109.511719 209.90625 108.457031 210.558594 108.257812 210.691406 C 107.371094 211.277344 106.757812 212.140625 106.445312 213.097656 C 72.6875 270.410156 22.945312 258.699219 10.242188 254.542969 C 11.96875 205.660156 51.980469 187.917969 53.714844 187.175781 Z M 53.714844 187.175781 "/></g><path style=" stroke:none;fill-rule:nonzero;fill:#000000;fill-opacity:1;" d="M 261.957031 159.617188 C 261.496094 162.1875 263.195312 164.644531 265.753906 165.109375 C 268.363281 165.574219 270.773438 163.863281 271.238281 161.304688 C 272.835938 152.460938 280.386719 146.042969 289.175781 146.042969 C 297.964844 146.042969 305.511719 152.464844 307.117188 161.304688 C 307.527344 163.589844 309.511719 165.183594 311.75 165.183594 C 312.03125 165.183594 312.3125 165.160156 312.597656 165.105469 C 315.164062 164.640625 316.863281 162.183594 316.394531 159.617188 C 313.976562 146.28125 302.527344 136.597656 289.175781 136.597656 C 275.820312 136.597656 264.375 146.28125 261.957031 159.617188 Z M 261.957031 159.617188 "/></g></svg>