<svg xmlns="http://www.w3.org/2000/svg" xmlns:xlink="http://www.w3.org/1999/xlink" width="500" zoomAndPan="magnify" viewBox="0 0 375 374.999991" height="500" preserveAspectRatio="xMidYMid meet" version="1.2"><defs><clipPath id="56645f0041"><path d="M 180.984375 102.667969 L 274.617188 102.667969 L 274.617188 192.300781 L 180.984375 192.300781 Z M 180.984375 102.667969 "/></clipPath></defs><g id="0975727d1d"><path style=" stroke:none;fill-rule:nonzero;fill:#000000;fill-opacity:1;" d="M 355.890625 38.253906 C 353.128906 53.632812 346.003906 67.484375 334.949219 78.136719 L 279.253906 133.832031 C 277.289062 135.796875 276.488281 138.960938 277.289062 141.722656 L 329.824219 316.707031 L 313.242188 333.285156 L 267.800781 255.882812 C 255.546875 234.941406 240.535156 215.996094 223.554688 198.984375 C 220.390625 195.855469 215.664062 195.855469 212.503906 198.621094 L 129.570312 271.296875 C 127.574219 273.261719 126.410156 276.023438 126.777344 278.785156 L 140.992188 347.898438 L 133.898438 355.023438 L 94.414062 300.925781 C 92.816406 298.929688 90.453125 297.761719 88.089844 297.761719 C 86.890625 297.761719 86.09375 298.128906 84.925781 298.527344 L 70.3125 304.855469 L 76.636719 290.238281 C 78.203125 286.710938 77.039062 282.75 73.875 280.75 L 20.140625 240.867188 L 27.234375 233.777344 L 96.378906 247.992188 C 99.144531 248.390625 101.90625 247.59375 103.871094 245.226562 L 176.546875 162.265625 C 179.308594 159.101562 179.308594 154.375 176.148438 151.210938 C 159.167969 134.234375 139.824219 119.21875 119.285156 106.96875 L 41.882812 61.921875 L 58.460938 45.34375 L 233.441406 97.878906 C 236.207031 98.675781 239.367188 97.878906 241.332031 95.914062 L 297.03125 40.214844 C 308.117188 29.5625 321.933594 22.039062 336.914062 19.277344 L 355.089844 16.113281 C 356.6875 15.714844 357.488281 16.511719 357.855469 16.914062 C 358.253906 17.3125 359.054688 18.476562 358.652344 19.675781 Z M 369.707031 5.460938 C 365.378906 1.097656 359.054688 -0.867188 352.726562 0.300781 L 334.550781 3.460938 C 316.007812 7.023438 299.425781 15.714844 285.976562 28.765625 L 233.441406 81.296875 L 58.460938 28.765625 C 55.699219 27.964844 52.535156 28.765625 50.570312 30.726562 L 23.304688 57.996094 C 21.738281 59.558594 20.542969 62.324219 20.941406 64.6875 C 21.308594 67.082031 22.503906 69.445312 24.867188 70.613281 L 110.996094 121.183594 C 128.375 131.46875 144.953125 143.6875 159.566406 157.539062 L 94.78125 231.378906 L 26.066406 217.164062 C 23.304688 216.761719 20.542969 217.5625 18.976562 219.527344 L 2.363281 236.140625 C 0.800781 237.703125 0 240.066406 0 242.464844 C 0 244.828125 1.199219 246.792969 3.164062 248.390625 L 59.257812 289.839844 L 54.097656 302.089844 C 51.734375 307.617188 52.933594 313.941406 57.261719 317.90625 C 61.625 321.832031 67.550781 323.429688 73.074219 321.066406 L 85.328125 315.90625 L 126.808594 372.003906 C 128.375 373.96875 130.335938 375.167969 132.703125 375.167969 L 133.5 375.167969 C 135.496094 375.167969 137.460938 374.367188 139.027344 372.800781 L 155.640625 356.222656 C 157.605469 354.226562 158.402344 351.460938 158.003906 349.097656 L 143.789062 280.382812 L 217.230469 215.597656 C 231.078125 230.214844 243.296875 246.792969 253.585938 264.171875 L 304.15625 350.296875 C 305.320312 352.261719 307.683594 353.828125 310.082031 354.226562 C 312.445312 354.625 314.808594 353.828125 316.773438 351.863281 L 344.039062 324.597656 C 346.003906 322.632812 346.800781 319.46875 346.003906 316.707031 L 293.867188 141.722656 L 346.003906 89.589844 C 359.453125 76.539062 368.140625 59.558594 371.304688 41.015625 L 374.46875 22.839844 C 376.03125 16.511719 374.066406 10.1875 369.738281 5.460938 L 369.707031 5.460938 "/><g clip-rule="nonzero" clip-path="url(#56645f0041)"><path style=" stroke:none;fill-rule:nonzero;fill:#ff3131;fill-opacity:1;" d="M 180.984375 102.667969 L 274.46875 102.667969 L 274.46875 192.300781 L 180.984375 192.300781 Z M 180.984375 102.667969 "/></g></g></svg>