<svg xmlns="http://www.w3.org/2000/svg" xmlns:xlink="http://www.w3.org/1999/xlink" width="500" zoomAndPan="magnify" viewBox="0 0 375 374.999991" height="500" preserveAspectRatio="xMidYMid meet" version="1.2"><defs><clipPath id="d063cb54c2"><path d="M 202 121 L 349.828125 121 L 349.828125 255 L 202 255 Z M 202 121 "/></clipPath><clipPath id="aa5aab946f"><path d="M 25.078125 121 L 173 121 L 173 255 L 25.078125 255 Z M 25.078125 121 "/></clipPath></defs><g id="bbd9207f60"><rect x="0" width="375" y="0" height="374.999991" style="fill:#ffffff;fill-opacity:1;stroke:none;"/><rect x="0" width="375" y="0" height="374.999991" style="fill:#ffffff;fill-opacity:1;stroke:none;"/><path style=" stroke:none;fill-rule:nonzero;fill:#040606;fill-opacity:1;" d="M 215.683594 129.488281 C 211.109375 43.335938 207.285156 0.898438 187.789062 0 C 187.714844 0 187.566406 0 187.492188 0 C 187.414062 0 187.265625 0 187.191406 0 C 167.695312 0.898438 163.871094 43.261719 159.296875 129.488281 C 155.398438 202.816406 170.621094 317.082031 175.570312 351.421875 C 176.394531 357.195312 181.34375 361.546875 187.191406 361.546875 L 187.789062 361.546875 C 193.640625 361.546875 198.585938 357.273438 199.414062 351.421875 C 204.359375 317.007812 219.582031 202.816406 215.683594 129.488281 Z M 215.683594 129.488281 "/><g clip-rule="nonzero" clip-path="url(#d063cb54c2)"><path style=" stroke:none;fill-rule:nonzero;fill:#040606;fill-opacity:1;" d="M 205.558594 121.015625 L 342.695312 212.714844 C 347.042969 215.636719 349.667969 220.511719 349.667969 225.761719 L 349.667969 254.402344 L 202.484375 203.566406 Z M 205.558594 121.015625 "/></g><g clip-rule="nonzero" clip-path="url(#aa5aab946f)"><path style=" stroke:none;fill-rule:nonzero;fill:#040606;fill-opacity:1;" d="M 169.347656 121.015625 L 32.210938 212.714844 C 27.863281 215.5625 25.238281 220.511719 25.238281 225.761719 L 25.238281 254.402344 L 172.421875 203.566406 Z M 169.347656 121.015625 "/></g><path style=" stroke:none;fill-rule:nonzero;fill:#040606;fill-opacity:1;" d="M 195.589844 315.058594 L 257.070312 356.148438 C 259.019531 357.421875 260.21875 359.671875 260.21875 361.996094 L 260.21875 374.890625 L 194.164062 352.097656 Z M 195.589844 315.058594 "/><path style=" stroke:none;fill-rule:nonzero;fill:#040606;fill-opacity:1;" d="M 179.316406 315.058594 L 117.835938 356.148438 C 115.886719 357.421875 114.6875 359.671875 114.6875 361.996094 L 114.6875 374.890625 L 180.742188 352.097656 Z M 179.316406 315.058594 "/></g></svg>