<?xml version="1.0" encoding="utf-8"?>
<svg xmlns="http://www.w3.org/2000/svg" width="512" zoomAndPan="magnify" viewBox="0 0 384 383.999986" height="512" preserveAspectRatio="xMidYMid meet" version="1.2">
  <defs>
    <clipPath id="3c2fb66510">
      <path d="M 3 67.179688 L 268 67.179688 L 268 267 L 3 267 Z M 3 67.179688 "/>
    </clipPath>
    <clipPath id="3250f1c239">
      <path d="M 69 241 L 145 241 L 145 316.929688 L 69 316.929688 Z M 69 241 "/>
    </clipPath>
    <clipPath id="79d7c68573">
      <path d="M 275 241 L 351 241 L 351 316.929688 L 275 316.929688 Z M 275 241 "/>
    </clipPath>
  </defs>
  <g id="mainobj" transform="matrix(1, 0, 0, 1, 3.75, -0.680851)">
    <path style=" stroke:none;fill-rule:nonzero;fill:#000000;fill-opacity:1;" d="M 364.65625 266.15625 L 338.230469 266.15625 C 337.84375 266.15625 337.460938 266.117188 337.082031 266.042969 C 336.703125 265.96875 336.335938 265.855469 335.976562 265.707031 C 335.621094 265.558594 335.28125 265.378906 334.960938 265.164062 C 334.640625 264.949219 334.34375 264.703125 334.070312 264.429688 C 333.796875 264.15625 333.550781 263.859375 333.335938 263.539062 C 333.121094 263.214844 332.941406 262.875 332.792969 262.519531 C 332.644531 262.164062 332.535156 261.792969 332.457031 261.414062 C 332.382812 261.035156 332.34375 260.652344 332.34375 260.265625 C 332.34375 259.878906 332.382812 259.496094 332.457031 259.117188 C 332.535156 258.738281 332.644531 258.367188 332.792969 258.011719 C 332.941406 257.652344 333.121094 257.316406 333.335938 256.992188 C 333.550781 256.671875 333.796875 256.375 334.070312 256.101562 C 334.34375 255.828125 334.640625 255.582031 334.960938 255.367188 C 335.28125 255.152344 335.621094 254.972656 335.976562 254.824219 C 336.335938 254.675781 336.703125 254.5625 337.082031 254.488281 C 337.460938 254.414062 337.84375 254.375 338.230469 254.375 L 358.769531 254.375 L 358.769531 228.28125 C 358.773438 226.640625 358.617188 225.015625 358.300781 223.40625 C 357.984375 221.792969 357.511719 220.230469 356.886719 218.714844 C 356.261719 217.199219 355.492188 215.757812 354.578125 214.394531 C 353.667969 213.03125 352.632812 211.769531 351.472656 210.609375 C 349.109375 208.210938 347.148438 205.523438 345.585938 202.539062 C 343.617188 199.285156 342.265625 195.789062 341.527344 192.054688 L 334.40625 157.832031 L 334.40625 157.183594 C 334.140625 155.96875 333.773438 154.78125 333.308594 153.628906 C 332.84375 152.472656 332.28125 151.367188 331.628906 150.304688 C 330.972656 149.246094 330.234375 148.25 329.410156 147.320312 C 328.582031 146.386719 327.6875 145.53125 326.714844 144.75 C 325.746094 143.96875 324.714844 143.277344 323.628906 142.675781 C 322.539062 142.070312 321.410156 141.5625 320.234375 141.152344 C 319.058594 140.742188 317.859375 140.433594 316.632812 140.226562 C 315.402344 140.023438 314.167969 139.921875 312.921875 139.925781 L 267.609375 139.925781 L 267.609375 254.375 L 288.148438 254.375 C 288.535156 254.375 288.917969 254.414062 289.296875 254.488281 C 289.675781 254.5625 290.042969 254.675781 290.398438 254.824219 C 290.757812 254.972656 291.09375 255.152344 291.417969 255.367188 C 291.738281 255.582031 292.035156 255.828125 292.308594 256.101562 C 292.582031 256.375 292.824219 256.671875 293.039062 256.992188 C 293.253906 257.316406 293.4375 257.652344 293.585938 258.011719 C 293.730469 258.367188 293.84375 258.738281 293.917969 259.117188 C 293.996094 259.496094 294.03125 259.878906 294.03125 260.265625 C 294.03125 260.652344 293.996094 261.035156 293.917969 261.414062 C 293.84375 261.792969 293.730469 262.164062 293.585938 262.519531 C 293.4375 262.875 293.253906 263.214844 293.039062 263.539062 C 292.824219 263.859375 292.582031 264.15625 292.308594 264.429688 C 292.035156 264.703125 291.738281 264.949219 291.417969 265.164062 C 291.09375 265.378906 290.757812 265.558594 290.398438 265.707031 C 290.042969 265.855469 289.675781 265.96875 289.296875 266.042969 C 288.917969 266.117188 288.535156 266.15625 288.148438 266.15625 L 261.546875 266.15625 C 261.160156 266.15625 260.777344 266.117188 260.398438 266.042969 C 260.019531 265.96875 259.652344 265.855469 259.292969 265.707031 C 258.9375 265.558594 258.597656 265.378906 258.277344 265.164062 C 257.953125 264.949219 257.65625 264.703125 257.382812 264.429688 C 257.109375 264.15625 256.867188 263.859375 256.652344 263.539062 C 256.4375 263.214844 256.257812 262.875 256.109375 262.519531 C 255.960938 262.164062 255.847656 261.792969 255.773438 261.414062 C 255.699219 261.035156 255.660156 260.652344 255.660156 260.265625 L 255.660156 134.152344 C 255.660156 133.765625 255.699219 133.382812 255.773438 133.003906 C 255.847656 132.625 255.960938 132.257812 256.109375 131.898438 C 256.257812 131.542969 256.4375 131.203125 256.652344 130.882812 C 256.867188 130.558594 257.109375 130.261719 257.382812 129.988281 C 257.65625 129.714844 257.953125 129.472656 258.277344 129.257812 C 258.597656 129.039062 258.9375 128.859375 259.292969 128.710938 C 259.652344 128.5625 260.019531 128.453125 260.398438 128.375 C 260.777344 128.300781 261.160156 128.261719 261.546875 128.261719 L 312.746094 128.261719 C 313.695312 128.257812 314.640625 128.292969 315.585938 128.367188 C 316.527344 128.445312 317.46875 128.558594 318.402344 128.714844 C 319.335938 128.871094 320.265625 129.0625 321.183594 129.296875 C 322.101562 129.53125 323.007812 129.804688 323.902344 130.113281 C 324.796875 130.425781 325.675781 130.773438 326.542969 131.15625 C 327.410156 131.542969 328.257812 131.964844 329.085938 132.421875 C 329.917969 132.878906 330.726562 133.371094 331.515625 133.894531 C 332.304688 134.421875 333.066406 134.980469 333.808594 135.570312 C 334.550781 136.160156 335.265625 136.78125 335.953125 137.433594 C 336.640625 138.082031 337.300781 138.761719 337.933594 139.46875 C 338.566406 140.175781 339.164062 140.910156 339.734375 141.667969 C 340.304688 142.425781 340.839844 143.207031 341.34375 144.007812 C 341.84375 144.8125 342.3125 145.636719 342.746094 146.480469 C 343.179688 147.324219 343.578125 148.183594 343.9375 149.058594 C 344.296875 149.9375 344.621094 150.828125 344.90625 151.730469 C 345.191406 152.636719 345.4375 153.550781 345.644531 154.476562 C 345.679688 154.730469 345.679688 154.984375 345.644531 155.242188 L 352.824219 189.816406 C 353.3125 192.292969 354.175781 194.628906 355.414062 196.828125 C 356.542969 198.871094 357.9375 200.71875 359.59375 202.363281 C 361.289062 204.070312 362.800781 205.921875 364.132812 207.925781 C 365.464844 209.929688 366.589844 212.039062 367.507812 214.261719 C 368.425781 216.484375 369.121094 218.777344 369.589844 221.136719 C 370.0625 223.492188 370.300781 225.875 370.304688 228.28125 L 370.304688 260.265625 C 370.304688 260.640625 370.269531 261.015625 370.199219 261.386719 C 370.125 261.757812 370.019531 262.117188 369.878906 262.464844 C 369.738281 262.816406 369.566406 263.148438 369.363281 263.464844 C 369.160156 263.78125 368.925781 264.078125 368.664062 264.347656 C 368.402344 264.621094 368.121094 264.867188 367.8125 265.082031 C 367.503906 265.300781 367.179688 265.488281 366.835938 265.640625 C 366.492188 265.796875 366.136719 265.917969 365.769531 266.003906 C 365.402344 266.089844 365.03125 266.140625 364.65625 266.15625 Z M 364.65625 266.15625 "/>
    <path style=" stroke:none;fill-rule:nonzero;fill:#000000;fill-opacity:1;" d="M 350.824219 205.78125 L 283.378906 205.78125 C 282.992188 205.78125 282.609375 205.742188 282.230469 205.667969 C 281.851562 205.589844 281.484375 205.480469 281.128906 205.332031 C 280.769531 205.183594 280.429688 205.003906 280.109375 204.789062 C 279.789062 204.574219 279.492188 204.328125 279.21875 204.054688 C 278.945312 203.78125 278.703125 203.484375 278.488281 203.160156 C 278.273438 202.839844 278.089844 202.5 277.941406 202.144531 C 277.792969 201.785156 277.683594 201.417969 277.609375 201.039062 C 277.53125 200.660156 277.496094 200.277344 277.496094 199.890625 L 277.496094 156.066406 C 277.496094 155.679688 277.53125 155.296875 277.609375 154.917969 C 277.683594 154.535156 277.792969 154.167969 277.941406 153.8125 C 278.089844 153.453125 278.273438 153.113281 278.488281 152.792969 C 278.703125 152.472656 278.945312 152.175781 279.21875 151.902344 C 279.492188 151.625 279.789062 151.382812 280.109375 151.167969 C 280.429688 150.953125 280.769531 150.773438 281.128906 150.625 C 281.484375 150.476562 281.851562 150.363281 282.230469 150.289062 C 282.609375 150.214844 282.992188 150.175781 283.378906 150.175781 L 339.996094 150.175781 C 340.554688 150.171875 341.105469 150.246094 341.644531 150.398438 C 342.179688 150.550781 342.6875 150.777344 343.160156 151.074219 C 343.636719 151.371094 344.058594 151.730469 344.433594 152.148438 C 344.804688 152.566406 345.109375 153.027344 345.351562 153.53125 C 345.578125 154.085938 345.757812 154.65625 345.878906 155.242188 L 353.0625 189.757812 C 353.535156 192.285156 354.417969 194.664062 355.710938 196.886719 C 355.96875 197.332031 356.164062 197.808594 356.296875 198.304688 C 356.429688 198.804688 356.496094 199.3125 356.496094 199.832031 C 356.496094 200.347656 356.429688 200.855469 356.296875 201.355469 C 356.164062 201.855469 355.96875 202.328125 355.710938 202.777344 C 355.210938 203.667969 354.527344 204.378906 353.65625 204.914062 C 352.789062 205.449219 351.84375 205.738281 350.824219 205.78125 Z M 289.441406 194 L 342.410156 194 C 342.238281 193.398438 342.097656 192.789062 341.996094 192.171875 L 335.699219 161.957031 L 289.265625 161.957031 Z M 289.441406 194 "/>
    <path style=" stroke:none;fill-rule:nonzero;fill:#000000;fill-opacity:1;" d="M 261.546875 266.15625 L 132.070312 266.15625 C 131.683594 266.15625 131.300781 266.117188 130.921875 266.042969 C 130.542969 265.96875 130.175781 265.855469 129.820312 265.707031 C 129.460938 265.558594 129.121094 265.378906 128.800781 265.164062 C 128.480469 264.949219 128.183594 264.703125 127.910156 264.429688 C 127.636719 264.15625 127.390625 263.859375 127.179688 263.539062 C 126.964844 263.214844 126.78125 262.875 126.632812 262.519531 C 126.484375 262.164062 126.375 261.792969 126.300781 261.414062 C 126.222656 261.035156 126.1875 260.652344 126.1875 260.265625 C 126.1875 259.878906 126.222656 259.496094 126.300781 259.117188 C 126.375 258.738281 126.484375 258.367188 126.632812 258.011719 C 126.78125 257.652344 126.964844 257.316406 127.179688 256.992188 C 127.390625 256.671875 127.636719 256.375 127.910156 256.101562 C 128.183594 255.828125 128.480469 255.582031 128.800781 255.367188 C 129.121094 255.152344 129.460938 254.972656 129.820312 254.824219 C 130.175781 254.675781 130.542969 254.5625 130.921875 254.488281 C 131.300781 254.414062 131.683594 254.375 132.070312 254.375 L 255.660156 254.375 L 255.660156 89.445312 C 255.648438 88.75 255.570312 88.0625 255.421875 87.386719 C 255.277344 86.707031 255.0625 86.046875 254.785156 85.410156 C 254.507812 84.773438 254.171875 84.167969 253.773438 83.597656 C 253.378906 83.027344 252.929688 82.503906 252.429688 82.019531 C 251.929688 81.539062 251.386719 81.109375 250.800781 80.738281 C 250.214844 80.363281 249.601562 80.046875 248.953125 79.796875 C 248.308594 79.542969 247.640625 79.355469 246.957031 79.238281 C 246.273438 79.117188 245.585938 79.0625 244.890625 79.078125 L 25.902344 79.078125 C 25.210938 79.078125 24.523438 79.144531 23.847656 79.28125 C 23.167969 79.417969 22.507812 79.617188 21.871094 79.882812 C 21.230469 80.144531 20.625 80.472656 20.050781 80.855469 C 19.472656 81.242188 18.941406 81.675781 18.453125 82.167969 C 17.964844 82.65625 17.527344 83.1875 17.144531 83.765625 C 16.757812 84.339844 16.433594 84.949219 16.167969 85.585938 C 15.90625 86.226562 15.703125 86.886719 15.570312 87.566406 C 15.433594 88.246094 15.367188 88.929688 15.367188 89.621094 L 15.367188 247.894531 C 15.367188 248.320312 15.410156 248.742188 15.492188 249.160156 C 15.574219 249.578125 15.699219 249.980469 15.859375 250.375 C 16.023438 250.769531 16.222656 251.140625 16.457031 251.496094 C 16.695312 251.847656 16.964844 252.175781 17.261719 252.476562 C 17.5625 252.777344 17.890625 253.046875 18.246094 253.28125 C 18.597656 253.519531 18.972656 253.71875 19.363281 253.882812 C 19.757812 254.042969 20.160156 254.167969 20.578125 254.25 C 20.996094 254.332031 21.417969 254.375 21.839844 254.375 L 81.871094 254.375 C 82.257812 254.375 82.640625 254.414062 83.019531 254.488281 C 83.398438 254.5625 83.765625 254.675781 84.121094 254.824219 C 84.480469 254.972656 84.820312 255.152344 85.140625 255.367188 C 85.460938 255.582031 85.757812 255.828125 86.03125 256.101562 C 86.304688 256.375 86.550781 256.671875 86.765625 256.992188 C 86.976562 257.316406 87.160156 257.652344 87.308594 258.011719 C 87.457031 258.367188 87.566406 258.738281 87.640625 259.117188 C 87.71875 259.496094 87.753906 259.878906 87.753906 260.265625 C 87.753906 260.652344 87.71875 261.035156 87.640625 261.414062 C 87.566406 261.792969 87.457031 262.164062 87.308594 262.519531 C 87.160156 262.875 86.976562 263.214844 86.765625 263.539062 C 86.550781 263.859375 86.304688 264.15625 86.03125 264.429688 C 85.757812 264.703125 85.460938 264.949219 85.140625 265.164062 C 84.820312 265.378906 84.480469 265.558594 84.121094 265.707031 C 83.765625 265.855469 83.398438 265.96875 83.019531 266.042969 C 82.640625 266.117188 82.257812 266.15625 81.871094 266.15625 L 21.839844 266.15625 C 21.242188 266.15625 20.648438 266.125 20.054688 266.066406 C 19.457031 266.007812 18.867188 265.921875 18.28125 265.804688 C 17.695312 265.6875 17.117188 265.542969 16.546875 265.371094 C 15.972656 265.195312 15.410156 264.996094 14.859375 264.765625 C 14.308594 264.535156 13.769531 264.28125 13.242188 264 C 12.714844 263.71875 12.203125 263.410156 11.707031 263.078125 C 11.207031 262.746094 10.730469 262.390625 10.265625 262.011719 C 9.804688 261.632812 9.363281 261.230469 8.941406 260.808594 C 8.519531 260.382812 8.117188 259.941406 7.738281 259.480469 C 7.359375 259.015625 7.003906 258.539062 6.671875 258.039062 C 6.339844 257.542969 6.03125 257.03125 5.75 256.503906 C 5.46875 255.976562 5.214844 255.4375 4.984375 254.882812 C 4.757812 254.332031 4.554688 253.769531 4.382812 253.195312 C 4.210938 252.625 4.0625 252.042969 3.949219 251.457031 C 3.832031 250.871094 3.742188 250.28125 3.683594 249.6875 C 3.625 249.089844 3.597656 248.492188 3.597656 247.894531 L 3.597656 89.621094 C 3.597656 88.890625 3.632812 88.160156 3.703125 87.433594 C 3.777344 86.707031 3.882812 85.984375 4.027344 85.265625 C 4.167969 84.550781 4.34375 83.84375 4.558594 83.140625 C 4.769531 82.441406 5.015625 81.753906 5.296875 81.078125 C 5.574219 80.402344 5.886719 79.742188 6.230469 79.097656 C 6.574219 78.453125 6.949219 77.828125 7.355469 77.21875 C 7.761719 76.613281 8.195312 76.023438 8.660156 75.460938 C 9.125 74.894531 9.613281 74.355469 10.128906 73.835938 C 10.648438 73.320312 11.1875 72.828125 11.753906 72.367188 C 12.316406 71.902344 12.902344 71.464844 13.511719 71.0625 C 14.117188 70.65625 14.742188 70.277344 15.386719 69.933594 C 16.03125 69.589844 16.691406 69.277344 17.367188 68.996094 C 18.042969 68.71875 18.726562 68.472656 19.425781 68.257812 C 20.125 68.046875 20.835938 67.871094 21.550781 67.726562 C 22.265625 67.585938 22.988281 67.476562 23.714844 67.40625 C 24.441406 67.335938 25.171875 67.296875 25.902344 67.296875 L 244.890625 67.296875 C 245.621094 67.296875 246.351562 67.335938 247.078125 67.40625 C 247.804688 67.476562 248.527344 67.585938 249.242188 67.726562 C 249.957031 67.871094 250.667969 68.046875 251.367188 68.257812 C 252.0625 68.472656 252.75 68.71875 253.425781 68.996094 C 254.101562 69.277344 254.761719 69.589844 255.40625 69.933594 C 256.050781 70.277344 256.675781 70.65625 257.28125 71.0625 C 257.890625 71.464844 258.476562 71.902344 259.039062 72.367188 C 259.605469 72.828125 260.144531 73.320312 260.664062 73.835938 C 261.179688 74.355469 261.667969 74.894531 262.132812 75.460938 C 262.597656 76.023438 263.03125 76.613281 263.4375 77.21875 C 263.84375 77.828125 264.21875 78.453125 264.5625 79.097656 C 264.90625 79.742188 265.21875 80.402344 265.496094 81.078125 C 265.777344 81.753906 266.023438 82.441406 266.234375 83.140625 C 266.445312 83.84375 266.625 84.550781 266.765625 85.265625 C 266.910156 85.984375 267.015625 86.707031 267.089844 87.433594 C 267.160156 88.160156 267.195312 88.890625 267.195312 89.621094 L 267.195312 260.441406 C 267.183594 260.8125 267.140625 261.175781 267.058594 261.539062 C 266.980469 261.898438 266.867188 262.25 266.722656 262.589844 C 266.578125 262.929688 266.402344 263.253906 266.195312 263.558594 C 265.988281 263.867188 265.753906 264.152344 265.496094 264.414062 C 265.234375 264.675781 264.953125 264.914062 264.648438 265.121094 C 264.34375 265.332031 264.023438 265.511719 263.6875 265.660156 C 263.347656 265.808594 263 265.925781 262.640625 266.007812 C 262.28125 266.09375 261.914062 266.140625 261.546875 266.15625 Z M 261.546875 266.15625 " clip-rule="nonzero" clip-path="url(#3c2fb66510)"/>
    <path style=" stroke:none;fill-rule:nonzero;fill:#000000;fill-opacity:1;" d="M 75.867188 290.425781 L 67.804688 290.425781 C 65.820312 290.429688 63.855469 290.242188 61.910156 289.859375 C 59.960938 289.476562 58.074219 288.90625 56.238281 288.148438 C 54.40625 287.390625 52.664062 286.457031 51.015625 285.355469 C 49.367188 284.25 47.839844 282.996094 46.441406 281.589844 C 45.050781 280.183594 43.8125 278.65625 42.71875 277.007812 C 41.628906 275.359375 40.707031 273.621094 39.953125 271.792969 C 39.203125 269.964844 38.632812 268.082031 38.25 266.140625 C 37.867188 264.203125 37.671875 262.242188 37.671875 260.265625 C 37.671875 259.878906 37.710938 259.496094 37.785156 259.117188 C 37.859375 258.738281 37.972656 258.367188 38.121094 258.011719 C 38.269531 257.652344 38.449219 257.316406 38.664062 256.992188 C 38.878906 256.671875 39.121094 256.375 39.394531 256.101562 C 39.667969 255.828125 39.964844 255.582031 40.289062 255.367188 C 40.609375 255.152344 40.949219 254.972656 41.304688 254.824219 C 41.664062 254.675781 42.03125 254.5625 42.410156 254.488281 C 42.789062 254.414062 43.171875 254.375 43.558594 254.375 L 81.871094 254.375 C 82.257812 254.375 82.640625 254.414062 83.019531 254.488281 C 83.398438 254.5625 83.765625 254.675781 84.121094 254.824219 C 84.480469 254.972656 84.820312 255.152344 85.140625 255.367188 C 85.460938 255.582031 85.757812 255.828125 86.03125 256.101562 C 86.304688 256.375 86.550781 256.671875 86.765625 256.992188 C 86.976562 257.316406 87.160156 257.652344 87.308594 258.011719 C 87.457031 258.367188 87.566406 258.738281 87.640625 259.117188 C 87.71875 259.496094 87.753906 259.878906 87.753906 260.265625 C 87.753906 260.652344 87.71875 261.035156 87.640625 261.414062 C 87.566406 261.792969 87.457031 262.164062 87.308594 262.519531 C 87.160156 262.875 86.976562 263.214844 86.765625 263.539062 C 86.550781 263.859375 86.304688 264.15625 86.03125 264.429688 C 85.757812 264.703125 85.460938 264.949219 85.140625 265.164062 C 84.820312 265.378906 84.480469 265.558594 84.121094 265.707031 C 83.765625 265.855469 83.398438 265.96875 83.019531 266.042969 C 82.640625 266.117188 82.257812 266.15625 81.871094 266.15625 L 50.679688 266.15625 C 51.574219 268.855469 53.023438 271.210938 55.035156 273.222656 C 56.75 274.960938 58.738281 276.300781 60.992188 277.242188 C 63.25 278.179688 65.597656 278.648438 68.039062 278.644531 L 76.101562 278.644531 C 76.488281 278.644531 76.871094 278.679688 77.25 278.757812 C 77.628906 278.832031 77.996094 278.945312 78.355469 279.089844 C 78.710938 279.238281 79.050781 279.421875 79.371094 279.636719 C 79.695312 279.851562 79.992188 280.09375 80.265625 280.367188 C 80.539062 280.640625 80.78125 280.941406 80.996094 281.261719 C 81.210938 281.582031 81.390625 281.921875 81.539062 282.28125 C 81.6875 282.636719 81.800781 283.003906 81.875 283.382812 C 81.949219 283.765625 81.988281 284.148438 81.988281 284.535156 C 81.988281 284.921875 81.949219 285.304688 81.875 285.683594 C 81.800781 286.0625 81.6875 286.429688 81.539062 286.789062 C 81.390625 287.144531 81.210938 287.484375 80.996094 287.804688 C 80.78125 288.128906 80.539062 288.425781 80.265625 288.699219 C 79.992188 288.972656 79.695312 289.214844 79.371094 289.429688 C 79.050781 289.644531 78.710938 289.828125 78.355469 289.976562 C 77.996094 290.125 77.628906 290.234375 77.25 290.3125 C 76.871094 290.386719 76.488281 290.425781 76.101562 290.425781 Z M 75.867188 290.425781 "/>
    <path style=" stroke:none;fill-rule:nonzero;fill:#000000;fill-opacity:1;" d="M 364.949219 290.425781 L 344.234375 290.425781 C 343.847656 290.425781 343.464844 290.386719 343.085938 290.3125 C 342.707031 290.234375 342.335938 290.125 341.980469 289.976562 C 341.625 289.828125 341.285156 289.644531 340.964844 289.429688 C 340.640625 289.214844 340.34375 288.972656 340.070312 288.699219 C 339.796875 288.425781 339.554688 288.128906 339.339844 287.804688 C 339.125 287.484375 338.945312 287.144531 338.796875 286.789062 C 338.648438 286.429688 338.535156 286.0625 338.460938 285.683594 C 338.386719 285.304688 338.347656 284.921875 338.347656 284.535156 C 338.347656 284.148438 338.386719 283.765625 338.460938 283.382812 C 338.535156 283.003906 338.648438 282.636719 338.796875 282.28125 C 338.945312 281.921875 339.125 281.582031 339.339844 281.261719 C 339.554688 280.941406 339.796875 280.640625 340.070312 280.367188 C 340.34375 280.09375 340.640625 279.851562 340.964844 279.636719 C 341.285156 279.421875 341.625 279.238281 341.980469 279.089844 C 342.335938 278.945312 342.707031 278.832031 343.085938 278.757812 C 343.464844 278.679688 343.847656 278.644531 344.234375 278.644531 L 364.949219 278.644531 C 365.421875 278.644531 365.878906 278.550781 366.3125 278.367188 C 366.75 278.1875 367.136719 277.925781 367.464844 277.585938 C 367.796875 277.25 368.050781 276.859375 368.226562 276.421875 C 368.402344 275.980469 368.488281 275.523438 368.480469 275.050781 L 368.480469 269.691406 C 368.480469 269.222656 368.390625 268.769531 368.210938 268.335938 C 368.03125 267.90625 367.777344 267.523438 367.445312 267.191406 C 367.113281 266.859375 366.734375 266.605469 366.300781 266.425781 C 365.867188 266.246094 365.417969 266.15625 364.949219 266.15625 L 338.230469 266.15625 C 337.84375 266.15625 337.460938 266.117188 337.082031 266.042969 C 336.703125 265.96875 336.335938 265.855469 335.976562 265.707031 C 335.621094 265.558594 335.28125 265.378906 334.960938 265.164062 C 334.640625 264.949219 334.34375 264.703125 334.070312 264.429688 C 333.796875 264.15625 333.550781 263.859375 333.335938 263.539062 C 333.121094 263.214844 332.941406 262.875 332.792969 262.519531 C 332.644531 262.164062 332.535156 261.792969 332.457031 261.414062 C 332.382812 261.035156 332.34375 260.652344 332.34375 260.265625 C 332.34375 259.878906 332.382812 259.496094 332.457031 259.117188 C 332.535156 258.738281 332.644531 258.367188 332.792969 258.011719 C 332.941406 257.652344 333.121094 257.316406 333.335938 256.992188 C 333.550781 256.671875 333.796875 256.375 334.070312 256.101562 C 334.34375 255.828125 334.640625 255.582031 334.960938 255.367188 C 335.28125 255.152344 335.621094 254.972656 335.976562 254.824219 C 336.335938 254.675781 336.703125 254.5625 337.082031 254.488281 C 337.460938 254.414062 337.84375 254.375 338.230469 254.375 L 364.65625 254.375 C 365.667969 254.363281 366.675781 254.453125 367.671875 254.636719 C 368.671875 254.824219 369.640625 255.109375 370.582031 255.488281 C 371.523438 255.867188 372.417969 256.332031 373.269531 256.890625 C 374.117188 257.445312 374.90625 258.078125 375.628906 258.789062 C 376.355469 259.503906 377.003906 260.277344 377.574219 261.117188 C 378.144531 261.957031 378.628906 262.84375 379.027344 263.78125 C 379.421875 264.714844 379.722656 265.679688 379.929688 266.675781 C 380.136719 267.667969 380.242188 268.675781 380.25 269.691406 L 380.25 275.050781 C 380.25 276.058594 380.152344 277.054688 379.957031 278.042969 C 379.761719 279.03125 379.472656 279.988281 379.085938 280.917969 C 378.703125 281.851562 378.230469 282.734375 377.675781 283.574219 C 377.117188 284.410156 376.480469 285.1875 375.773438 285.898438 C 375.0625 286.613281 374.289062 287.25 373.453125 287.8125 C 372.621094 288.375 371.738281 288.847656 370.808594 289.238281 C 369.878906 289.625 368.921875 289.917969 367.9375 290.117188 C 366.949219 290.316406 365.953125 290.421875 364.949219 290.425781 Z M 364.949219 290.425781 "/>
    <path style=" stroke:none;fill-rule:nonzero;fill:#000000;fill-opacity:1;" d="M 287.96875 266.15625 L 132.128906 266.15625 C 131.742188 266.15625 131.359375 266.117188 130.980469 266.042969 C 130.601562 265.96875 130.234375 265.855469 129.878906 265.707031 C 129.519531 265.558594 129.183594 265.378906 128.859375 265.164062 C 128.539062 264.949219 128.242188 264.703125 127.96875 264.429688 C 127.695312 264.15625 127.453125 263.859375 127.238281 263.539062 C 127.023438 263.214844 126.839844 262.875 126.691406 262.519531 C 126.546875 262.164062 126.433594 261.792969 126.359375 261.414062 C 126.28125 261.035156 126.246094 260.652344 126.246094 260.265625 C 126.246094 259.878906 126.28125 259.496094 126.359375 259.117188 C 126.433594 258.738281 126.546875 258.367188 126.691406 258.011719 C 126.839844 257.652344 127.023438 257.316406 127.238281 256.992188 C 127.453125 256.671875 127.695312 256.375 127.96875 256.101562 C 128.242188 255.828125 128.539062 255.582031 128.859375 255.367188 C 129.183594 255.152344 129.519531 254.972656 129.878906 254.824219 C 130.234375 254.675781 130.601562 254.5625 130.980469 254.488281 C 131.359375 254.414062 131.742188 254.375 132.128906 254.375 L 287.96875 254.375 C 288.355469 254.375 288.738281 254.414062 289.117188 254.488281 C 289.496094 254.5625 289.867188 254.675781 290.222656 254.824219 C 290.578125 254.972656 290.917969 255.152344 291.238281 255.367188 C 291.5625 255.582031 291.859375 255.828125 292.132812 256.101562 C 292.40625 256.375 292.648438 256.671875 292.863281 256.992188 C 293.078125 257.316406 293.257812 257.652344 293.40625 258.011719 C 293.554688 258.367188 293.667969 258.738281 293.742188 259.117188 C 293.816406 259.496094 293.855469 259.878906 293.855469 260.265625 C 293.855469 260.652344 293.816406 261.035156 293.742188 261.414062 C 293.667969 261.792969 293.554688 262.164062 293.40625 262.519531 C 293.257812 262.875 293.078125 263.214844 292.863281 263.539062 C 292.648438 263.859375 292.40625 264.15625 292.132812 264.429688 C 291.859375 264.703125 291.5625 264.949219 291.238281 265.164062 C 290.917969 265.378906 290.578125 265.558594 290.222656 265.707031 C 289.867188 265.855469 289.496094 265.96875 289.117188 266.042969 C 288.738281 266.117188 288.355469 266.15625 287.96875 266.15625 Z M 287.96875 266.15625 "/>
    <path style=" stroke:none;fill-rule:nonzero;fill:#000000;fill-opacity:1;" d="M 281.96875 290.425781 L 138.132812 290.425781 C 137.746094 290.425781 137.363281 290.386719 136.984375 290.3125 C 136.605469 290.234375 136.238281 290.125 135.878906 289.976562 C 135.523438 289.828125 135.183594 289.644531 134.863281 289.429688 C 134.542969 289.214844 134.246094 288.972656 133.972656 288.699219 C 133.699219 288.425781 133.453125 288.128906 133.238281 287.804688 C 133.023438 287.484375 132.84375 287.144531 132.695312 286.789062 C 132.546875 286.429688 132.4375 286.0625 132.359375 285.683594 C 132.285156 285.304688 132.246094 284.921875 132.246094 284.535156 C 132.246094 284.148438 132.285156 283.765625 132.359375 283.382812 C 132.4375 283.003906 132.546875 282.636719 132.695312 282.28125 C 132.84375 281.921875 133.023438 281.582031 133.238281 281.261719 C 133.453125 280.941406 133.699219 280.640625 133.972656 280.367188 C 134.246094 280.09375 134.542969 279.851562 134.863281 279.636719 C 135.183594 279.421875 135.523438 279.238281 135.878906 279.089844 C 136.238281 278.945312 136.605469 278.832031 136.984375 278.757812 C 137.363281 278.679688 137.746094 278.644531 138.132812 278.644531 L 281.96875 278.644531 C 282.355469 278.644531 282.738281 278.679688 283.117188 278.757812 C 283.496094 278.832031 283.863281 278.945312 284.21875 279.089844 C 284.578125 279.238281 284.914062 279.421875 285.238281 279.636719 C 285.558594 279.851562 285.855469 280.09375 286.128906 280.367188 C 286.402344 280.640625 286.644531 280.941406 286.859375 281.261719 C 287.074219 281.582031 287.257812 281.921875 287.40625 282.28125 C 287.550781 282.636719 287.664062 283.003906 287.738281 283.382812 C 287.816406 283.765625 287.851562 284.148438 287.851562 284.535156 C 287.851562 284.921875 287.816406 285.304688 287.738281 285.683594 C 287.664062 286.0625 287.550781 286.429688 287.40625 286.789062 C 287.257812 287.144531 287.074219 287.484375 286.859375 287.804688 C 286.644531 288.128906 286.402344 288.425781 286.128906 288.699219 C 285.855469 288.972656 285.558594 289.214844 285.238281 289.429688 C 284.914062 289.644531 284.578125 289.828125 284.21875 289.976562 C 283.863281 290.125 283.496094 290.234375 283.117188 290.3125 C 282.738281 290.386719 282.355469 290.425781 281.96875 290.425781 Z M 281.96875 290.425781 "/>
    <path style=" stroke:none;fill-rule:nonzero;fill:#000000;fill-opacity:1;" d="M 107 316.8125 C 105.773438 316.8125 104.550781 316.75 103.332031 316.625 C 102.113281 316.503906 100.902344 316.324219 99.703125 316.082031 C 98.5 315.839844 97.3125 315.542969 96.140625 315.183594 C 94.96875 314.824219 93.816406 314.410156 92.683594 313.941406 C 91.554688 313.46875 90.449219 312.945312 89.367188 312.363281 C 88.289062 311.785156 87.238281 311.152344 86.222656 310.46875 C 85.203125 309.789062 84.222656 309.054688 83.273438 308.277344 C 82.328125 307.496094 81.421875 306.671875 80.558594 305.804688 C 79.691406 304.9375 78.871094 304.027344 78.09375 303.078125 C 77.320312 302.128906 76.589844 301.144531 75.910156 300.125 C 75.230469 299.105469 74.605469 298.050781 74.027344 296.96875 C 73.449219 295.886719 72.929688 294.78125 72.460938 293.644531 C 71.992188 292.511719 71.582031 291.359375 71.226562 290.183594 C 70.875 289.007812 70.578125 287.820312 70.339844 286.617188 C 70.101562 285.414062 69.925781 284.203125 69.804688 282.980469 C 69.6875 281.761719 69.628906 280.539062 69.628906 279.3125 C 69.628906 278.085938 69.691406 276.859375 69.8125 275.640625 C 69.933594 274.417969 70.117188 273.207031 70.355469 272.003906 C 70.597656 270.804688 70.894531 269.613281 71.25 268.441406 C 71.609375 267.269531 72.019531 266.113281 72.492188 264.980469 C 72.960938 263.847656 73.484375 262.742188 74.0625 261.660156 C 74.644531 260.578125 75.273438 259.53125 75.953125 258.511719 C 76.636719 257.492188 77.367188 256.507812 78.144531 255.558594 C 78.921875 254.613281 79.746094 253.707031 80.613281 252.839844 C 81.480469 251.972656 82.386719 251.152344 83.335938 250.375 C 84.285156 249.597656 85.265625 248.867188 86.285156 248.1875 C 87.304688 247.503906 88.355469 246.875 89.4375 246.300781 C 90.519531 245.722656 91.625 245.199219 92.757812 244.730469 C 93.890625 244.261719 95.042969 243.847656 96.214844 243.492188 C 97.390625 243.140625 98.578125 242.839844 99.777344 242.601562 C 100.980469 242.363281 102.191406 242.1875 103.410156 242.066406 C 104.628906 241.945312 105.851562 241.886719 107.078125 241.886719 C 108.304688 241.886719 109.527344 241.949219 110.746094 242.070312 C 111.964844 242.191406 113.175781 242.371094 114.378906 242.609375 C 115.578125 242.851562 116.765625 243.148438 117.941406 243.503906 C 119.113281 243.863281 120.265625 244.273438 121.394531 244.746094 C 122.527344 245.214844 123.632812 245.738281 124.714844 246.316406 C 125.796875 246.894531 126.84375 247.527344 127.863281 248.207031 C 128.882812 248.890625 129.867188 249.621094 130.8125 250.398438 C 131.761719 251.175781 132.667969 252 133.53125 252.867188 C 134.398438 253.734375 135.222656 254.640625 136 255.589844 C 136.777344 256.539062 137.503906 257.523438 138.183594 258.542969 C 138.867188 259.5625 139.496094 260.613281 140.070312 261.695312 C 140.648438 262.777344 141.171875 263.886719 141.640625 265.019531 C 142.109375 266.152344 142.523438 267.304688 142.878906 268.480469 C 143.234375 269.652344 143.53125 270.839844 143.769531 272.042969 C 144.007812 273.246094 144.1875 274.457031 144.308594 275.679688 C 144.429688 276.898438 144.488281 278.125 144.488281 279.351562 C 144.488281 280.578125 144.425781 281.800781 144.304688 283.023438 C 144.179688 284.246094 144 285.457031 143.757812 286.660156 C 143.519531 287.867188 143.21875 289.054688 142.859375 290.230469 C 142.503906 291.402344 142.089844 292.558594 141.617188 293.691406 C 141.148438 294.824219 140.621094 295.933594 140.042969 297.015625 C 139.464844 298.097656 138.832031 299.148438 138.152344 300.167969 C 137.46875 301.1875 136.738281 302.171875 135.957031 303.121094 C 135.179688 304.070312 134.355469 304.976562 133.488281 305.84375 C 132.621094 306.710938 131.710938 307.535156 130.761719 308.3125 C 129.8125 309.089844 128.828125 309.820312 127.808594 310.5 C 126.789062 311.183594 125.738281 311.8125 124.65625 312.390625 C 123.574219 312.96875 122.464844 313.492188 121.332031 313.960938 C 120.199219 314.429688 119.046875 314.84375 117.871094 315.199219 C 116.699219 315.554688 115.511719 315.855469 114.308594 316.09375 C 113.105469 316.332031 111.890625 316.511719 110.671875 316.632812 C 109.449219 316.753906 108.226562 316.8125 107 316.8125 Z M 107 253.667969 C 106.160156 253.671875 105.324219 253.714844 104.488281 253.796875 C 103.652344 253.882812 102.820312 254.007812 101.996094 254.171875 C 101.175781 254.339844 100.359375 254.542969 99.558594 254.789062 C 98.753906 255.035156 97.964844 255.320312 97.191406 255.644531 C 96.414062 255.96875 95.65625 256.328125 94.917969 256.726562 C 94.175781 257.125 93.457031 257.554688 92.761719 258.023438 C 92.0625 258.492188 91.390625 258.996094 90.742188 259.53125 C 90.09375 260.0625 89.472656 260.628906 88.878906 261.226562 C 88.289062 261.820312 87.726562 262.445312 87.195312 263.09375 C 86.660156 263.746094 86.164062 264.421875 85.699219 265.121094 C 85.234375 265.820312 84.800781 266.542969 84.40625 267.285156 C 84.011719 268.027344 83.65625 268.785156 83.335938 269.5625 C 83.015625 270.339844 82.734375 271.132812 82.492188 271.9375 C 82.25 272.742188 82.046875 273.554688 81.882812 274.378906 C 81.722656 275.207031 81.601562 276.035156 81.519531 276.871094 C 81.4375 277.710938 81.398438 278.546875 81.398438 279.390625 C 81.402344 280.230469 81.441406 281.070312 81.527344 281.90625 C 81.609375 282.742188 81.734375 283.570312 81.898438 284.394531 C 82.066406 285.21875 82.269531 286.035156 82.515625 286.839844 C 82.757812 287.644531 83.042969 288.433594 83.367188 289.210938 C 83.6875 289.984375 84.046875 290.746094 84.445312 291.484375 C 84.84375 292.226562 85.273438 292.945312 85.742188 293.644531 C 86.210938 294.34375 86.710938 295.015625 87.242188 295.667969 C 87.777344 296.316406 88.339844 296.9375 88.9375 297.53125 C 89.53125 298.125 90.152344 298.6875 90.800781 299.21875 C 91.453125 299.753906 92.125 300.253906 92.824219 300.71875 C 93.523438 301.183594 94.246094 301.617188 94.984375 302.011719 C 95.726562 302.40625 96.484375 302.765625 97.261719 303.085938 C 98.039062 303.40625 98.828125 303.691406 99.632812 303.933594 C 100.4375 304.175781 101.25 304.378906 102.074219 304.542969 C 102.898438 304.707031 103.730469 304.828125 104.566406 304.910156 C 105.402344 304.992188 106.238281 305.03125 107.078125 305.03125 C 107.917969 305.03125 108.757812 304.988281 109.59375 304.90625 C 110.429688 304.824219 111.257812 304.699219 112.082031 304.535156 C 112.90625 304.371094 113.71875 304.164062 114.523438 303.921875 C 115.328125 303.675781 116.117188 303.394531 116.890625 303.070312 C 117.667969 302.75 118.425781 302.390625 119.167969 301.992188 C 119.90625 301.597656 120.625 301.164062 121.324219 300.695312 C 122.023438 300.230469 122.695312 299.730469 123.347656 299.195312 C 123.996094 298.660156 124.617188 298.097656 125.210938 297.503906 C 125.804688 296.910156 126.367188 296.285156 126.898438 295.636719 C 127.433594 294.984375 127.933594 294.3125 128.398438 293.613281 C 128.863281 292.914062 129.296875 292.191406 129.691406 291.449219 C 130.085938 290.710938 130.445312 289.949219 130.765625 289.171875 C 131.089844 288.398438 131.371094 287.605469 131.613281 286.800781 C 131.859375 285.996094 132.0625 285.183594 132.226562 284.359375 C 132.390625 283.535156 132.511719 282.703125 132.59375 281.867188 C 132.675781 281.03125 132.71875 280.191406 132.71875 279.351562 C 132.714844 278.507812 132.671875 277.667969 132.589844 276.832031 C 132.503906 275.992188 132.378906 275.160156 132.214844 274.335938 C 132.046875 273.511719 131.84375 272.695312 131.597656 271.890625 C 131.351562 271.085938 131.066406 270.292969 130.742188 269.519531 C 130.421875 268.742188 130.058594 267.980469 129.664062 267.238281 C 129.265625 266.496094 128.832031 265.777344 128.363281 265.078125 C 127.894531 264.378906 127.394531 263.703125 126.859375 263.054688 C 126.324219 262.402344 125.761719 261.78125 125.164062 261.1875 C 124.570312 260.59375 123.945312 260.027344 123.296875 259.496094 C 122.644531 258.960938 121.96875 258.460938 121.269531 257.992188 C 120.570312 257.527344 119.851562 257.09375 119.109375 256.699219 C 118.367188 256.304688 117.605469 255.945312 116.828125 255.621094 C 116.050781 255.300781 115.261719 255.015625 114.457031 254.773438 C 113.648438 254.53125 112.835938 254.324219 112.011719 254.160156 C 111.183594 253.996094 110.355469 253.875 109.515625 253.792969 C 108.679688 253.710938 107.839844 253.667969 107 253.667969 Z M 107 253.667969 " clip-rule="nonzero" clip-path="url(#3250f1c239)"/>
    <path style=" stroke:none;fill-rule:nonzero;fill:#000000;fill-opacity:1;" d="M 313.101562 316.8125 C 311.875 316.804688 310.65625 316.734375 309.4375 316.605469 C 308.222656 316.472656 307.015625 316.285156 305.816406 316.039062 C 304.617188 315.789062 303.433594 315.484375 302.265625 315.121094 C 301.097656 314.753906 299.949219 314.335938 298.820312 313.859375 C 297.695312 313.382812 296.59375 312.851562 295.519531 312.265625 C 294.441406 311.679688 293.398438 311.042969 292.386719 310.355469 C 291.375 309.667969 290.394531 308.933594 289.457031 308.148438 C 288.515625 307.367188 287.613281 306.539062 286.753906 305.667969 C 285.894531 304.796875 285.082031 303.882812 284.308594 302.933594 C 283.539062 301.980469 282.816406 300.992188 282.144531 299.96875 C 281.46875 298.949219 280.847656 297.894531 280.277344 296.8125 C 279.707031 295.726562 279.191406 294.617188 278.730469 293.484375 C 278.269531 292.347656 277.863281 291.195312 277.515625 290.019531 C 277.167969 288.847656 276.875 287.65625 276.644531 286.457031 C 276.410156 285.253906 276.238281 284.042969 276.125 282.820312 C 276.011719 281.601562 275.957031 280.378906 275.964844 279.15625 C 275.972656 277.929688 276.039062 276.707031 276.164062 275.492188 C 276.289062 274.273438 276.476562 273.0625 276.71875 271.863281 C 276.964844 270.664062 277.265625 269.476562 277.628906 268.308594 C 277.988281 267.136719 278.40625 265.988281 278.878906 264.855469 C 279.351562 263.726562 279.878906 262.625 280.460938 261.546875 C 281.042969 260.46875 281.675781 259.421875 282.359375 258.40625 C 283.046875 257.390625 283.777344 256.410156 284.558594 255.46875 C 285.339844 254.523438 286.164062 253.621094 287.03125 252.757812 C 287.898438 251.894531 288.808594 251.078125 289.757812 250.304688 C 290.707031 249.53125 291.691406 248.804688 292.710938 248.128906 C 293.730469 247.449219 294.78125 246.824219 295.863281 246.253906 C 296.945312 245.679688 298.050781 245.160156 299.183594 244.695312 C 300.316406 244.230469 301.46875 243.820312 302.640625 243.46875 C 303.8125 243.117188 305 242.824219 306.199219 242.585938 C 307.402344 242.351562 308.609375 242.175781 309.828125 242.058594 C 311.046875 241.941406 312.269531 241.886719 313.492188 241.890625 C 314.714844 241.890625 315.9375 241.957031 317.152344 242.078125 C 318.371094 242.203125 319.582031 242.382812 320.78125 242.625 C 321.980469 242.867188 323.164062 243.167969 324.335938 243.523438 C 325.503906 243.882812 326.65625 244.296875 327.785156 244.769531 C 328.914062 245.238281 330.019531 245.765625 331.097656 246.34375 C 332.175781 246.921875 333.222656 247.554688 334.238281 248.234375 C 335.257812 248.917969 336.238281 249.648438 337.183594 250.425781 C 338.125 251.207031 339.03125 252.027344 339.894531 252.894531 C 340.757812 253.761719 341.578125 254.671875 342.355469 255.617188 C 343.128906 256.566406 343.855469 257.550781 344.535156 258.566406 C 345.214844 259.585938 345.84375 260.636719 346.417969 261.71875 C 346.996094 262.796875 347.515625 263.90625 347.984375 265.035156 C 348.453125 266.167969 348.863281 267.320312 349.21875 268.492188 C 349.574219 269.664062 349.867188 270.851562 350.105469 272.054688 C 350.347656 273.253906 350.523438 274.464844 350.644531 275.683594 C 350.765625 276.902344 350.824219 278.125 350.824219 279.351562 C 350.824219 280.582031 350.761719 281.8125 350.636719 283.039062 C 350.515625 284.265625 350.332031 285.480469 350.089844 286.691406 C 349.84375 287.898438 349.542969 289.09375 349.183594 290.269531 C 348.824219 291.449219 348.40625 292.609375 347.929688 293.746094 C 347.457031 294.882812 346.929688 295.996094 346.34375 297.078125 C 345.761719 298.164062 345.125 299.21875 344.4375 300.242188 C 343.75 301.265625 343.011719 302.25 342.230469 303.199219 C 341.445312 304.148438 340.613281 305.058594 339.742188 305.925781 C 338.867188 306.796875 337.953125 307.617188 336.996094 308.394531 C 336.039062 309.175781 335.050781 309.902344 334.023438 310.582031 C 332.996094 311.261719 331.9375 311.890625 330.847656 312.46875 C 329.761719 313.042969 328.644531 313.5625 327.503906 314.03125 C 326.363281 314.496094 325.203125 314.90625 324.023438 315.257812 C 322.84375 315.605469 321.648438 315.898438 320.441406 316.132812 C 319.230469 316.367188 318.011719 316.539062 316.785156 316.652344 C 315.5625 316.765625 314.332031 316.820312 313.101562 316.8125 Z M 313.101562 253.667969 C 312.261719 253.679688 311.425781 253.726562 310.59375 253.820312 C 309.757812 253.910156 308.933594 254.042969 308.113281 254.214844 C 307.292969 254.390625 306.480469 254.601562 305.683594 254.855469 C 304.882812 255.105469 304.097656 255.398438 303.328125 255.726562 C 302.554688 256.054688 301.800781 256.421875 301.066406 256.824219 C 300.332031 257.226562 299.617188 257.664062 298.925781 258.140625 C 298.234375 258.613281 297.566406 259.117188 296.921875 259.65625 C 296.28125 260.195312 295.664062 260.765625 295.078125 261.363281 C 294.492188 261.960938 293.933594 262.589844 293.410156 263.242188 C 292.882812 263.894531 292.390625 264.574219 291.929688 265.273438 C 291.472656 265.976562 291.046875 266.699219 290.660156 267.441406 C 290.269531 268.1875 289.917969 268.945312 289.605469 269.722656 C 289.289062 270.503906 289.015625 271.292969 288.777344 272.097656 C 288.542969 272.902344 288.34375 273.71875 288.1875 274.542969 C 288.03125 275.367188 287.914062 276.195312 287.839844 277.03125 C 287.765625 277.867188 287.730469 278.707031 287.734375 279.542969 C 287.742188 280.382812 287.789062 281.21875 287.878906 282.054688 C 287.964844 282.890625 288.09375 283.714844 288.265625 284.539062 C 288.433594 285.359375 288.644531 286.171875 288.890625 286.972656 C 289.140625 287.773438 289.429688 288.5625 289.753906 289.335938 C 290.082031 290.105469 290.441406 290.863281 290.84375 291.601562 C 291.242188 292.335938 291.679688 293.054688 292.148438 293.75 C 292.617188 294.441406 293.121094 295.113281 293.65625 295.757812 C 294.191406 296.402344 294.757812 297.023438 295.355469 297.613281 C 295.949219 298.203125 296.574219 298.761719 297.226562 299.289062 C 297.875 299.816406 298.550781 300.3125 299.25 300.777344 C 299.949219 301.238281 300.671875 301.664062 301.410156 302.058594 C 302.152344 302.449219 302.910156 302.804688 303.6875 303.121094 C 304.464844 303.4375 305.253906 303.71875 306.054688 303.957031 C 306.859375 304.199219 307.671875 304.398438 308.496094 304.558594 C 309.320312 304.71875 310.148438 304.835938 310.980469 304.917969 C 311.816406 304.996094 312.652344 305.035156 313.492188 305.03125 C 314.328125 305.027344 315.164062 304.984375 316 304.898438 C 316.832031 304.8125 317.660156 304.6875 318.484375 304.519531 C 319.304688 304.355469 320.117188 304.148438 320.917969 303.902344 C 321.71875 303.65625 322.507812 303.371094 323.28125 303.046875 C 324.054688 302.722656 324.808594 302.363281 325.546875 301.964844 C 326.285156 301.570312 327.003906 301.136719 327.699219 300.667969 C 328.394531 300.199219 329.066406 299.699219 329.714844 299.167969 C 330.359375 298.632812 330.980469 298.070312 331.570312 297.472656 C 332.164062 296.878906 332.726562 296.257812 333.253906 295.609375 C 333.785156 294.960938 334.285156 294.285156 334.75 293.585938 C 335.214844 292.890625 335.644531 292.167969 336.039062 291.429688 C 336.433594 290.6875 336.789062 289.929688 337.109375 289.15625 C 337.429688 288.378906 337.710938 287.589844 337.953125 286.789062 C 338.195312 285.984375 338.398438 285.171875 338.5625 284.347656 C 338.726562 283.523438 338.847656 282.695312 338.929688 281.859375 C 339.011719 281.027344 339.054688 280.1875 339.054688 279.351562 C 339.050781 278.503906 339.007812 277.660156 338.921875 276.816406 C 338.839844 275.972656 338.710938 275.136719 338.542969 274.308594 C 338.375 273.476562 338.167969 272.65625 337.921875 271.847656 C 337.671875 271.039062 337.382812 270.242188 337.058594 269.464844 C 336.730469 268.683594 336.367188 267.917969 335.964844 267.175781 C 335.5625 266.429688 335.125 265.707031 334.648438 265.003906 C 334.175781 264.300781 333.671875 263.625 333.128906 262.972656 C 332.589844 262.320312 332.019531 261.699219 331.417969 261.101562 C 330.816406 260.507812 330.1875 259.945312 329.527344 259.410156 C 328.871094 258.878906 328.191406 258.378906 327.484375 257.910156 C 326.777344 257.445312 326.050781 257.015625 325.300781 256.621094 C 324.550781 256.226562 323.785156 255.871094 323 255.554688 C 322.21875 255.234375 321.417969 254.957031 320.609375 254.71875 C 319.796875 254.476562 318.976562 254.28125 318.144531 254.121094 C 317.3125 253.960938 316.476562 253.847656 315.632812 253.769531 C 314.789062 253.695312 313.945312 253.660156 313.101562 253.667969 Z M 313.101562 253.667969 " clip-rule="nonzero" clip-path="url(#79d7c68573)"/>
  </g>
  <g id="qr" transform="matrix(2.048511, 0, 0, 1.885106, -1108.81897, -189.892212)" style="">
    <path d="M 579.596 162.234 L 581.596 162.234 L 581.596 164.234 L 579.596 164.234 L 579.596 162.234 Z M 581.596 162.234 L 583.596 162.234 L 583.596 164.234 L 581.596 164.234 L 581.596 162.234 Z M 583.596 162.234 L 585.596 162.234 L 585.596 164.234 L 583.596 164.234 L 583.596 162.234 Z M 585.596 162.234 L 587.596 162.234 L 587.596 164.234 L 585.596 164.234 L 585.596 162.234 Z M 587.596 162.234 L 589.596 162.234 L 589.596 164.234 L 587.596 164.234 L 587.596 162.234 Z M 589.596 162.234 L 591.596 162.234 L 591.596 164.234 L 589.596 164.234 L 589.596 162.234 Z M 591.596 162.234 L 593.596 162.234 L 593.596 164.234 L 591.596 164.234 L 591.596 162.234 Z M 595.596 162.234 L 597.596 162.234 L 597.596 164.234 L 595.596 164.234 L 595.596 162.234 Z M 597.596 162.234 L 599.596 162.234 L 599.596 164.234 L 597.596 164.234 L 597.596 162.234 Z M 599.596 162.234 L 601.596 162.234 L 601.596 164.234 L 599.596 164.234 L 599.596 162.234 Z M 601.596 162.234 L 603.596 162.234 L 603.596 164.234 L 601.596 164.234 L 601.596 162.234 Z M 607.596 162.234 L 609.596 162.234 L 609.596 164.234 L 607.596 164.234 L 607.596 162.234 Z M 615.596 162.234 L 617.596 162.234 L 617.596 164.234 L 615.596 164.234 L 615.596 162.234 Z M 617.596 162.234 L 619.596 162.234 L 619.596 164.234 L 617.596 164.234 L 617.596 162.234 Z M 619.596 162.234 L 621.596 162.234 L 621.596 164.234 L 619.596 164.234 L 619.596 162.234 Z M 621.596 162.234 L 623.596 162.234 L 623.596 164.234 L 621.596 164.234 L 621.596 162.234 Z M 623.596 162.234 L 625.596 162.234 L 625.596 164.234 L 623.596 164.234 L 623.596 162.234 Z M 625.596 162.234 L 627.596 162.234 L 627.596 164.234 L 625.596 164.234 L 625.596 162.234 Z M 627.596 162.234 L 629.596 162.234 L 629.596 164.234 L 627.596 164.234 L 627.596 162.234 Z M 579.596 164.234 L 581.596 164.234 L 581.596 166.234 L 579.596 166.234 L 579.596 164.234 Z M 591.596 164.234 L 593.596 164.234 L 593.596 166.234 L 591.596 166.234 L 591.596 164.234 Z M 601.596 164.234 L 603.596 164.234 L 603.596 166.234 L 601.596 166.234 L 601.596 164.234 Z M 603.596 164.234 L 605.596 164.234 L 605.596 166.234 L 603.596 166.234 L 603.596 164.234 Z M 605.596 164.234 L 607.596 164.234 L 607.596 166.234 L 605.596 166.234 L 605.596 164.234 Z M 611.596 164.234 L 613.596 164.234 L 613.596 166.234 L 611.596 166.234 L 611.596 164.234 Z M 615.596 164.234 L 617.596 164.234 L 617.596 166.234 L 615.596 166.234 L 615.596 164.234 Z M 627.596 164.234 L 629.596 164.234 L 629.596 166.234 L 627.596 166.234 L 627.596 164.234 Z M 579.596 166.234 L 581.596 166.234 L 581.596 168.234 L 579.596 168.234 L 579.596 166.234 Z M 583.596 166.234 L 585.596 166.234 L 585.596 168.234 L 583.596 168.234 L 583.596 166.234 Z M 585.596 166.234 L 587.596 166.234 L 587.596 168.234 L 585.596 168.234 L 585.596 166.234 Z M 587.596 166.234 L 589.596 166.234 L 589.596 168.234 L 587.596 168.234 L 587.596 166.234 Z M 591.596 166.234 L 593.596 166.234 L 593.596 168.234 L 591.596 168.234 L 591.596 166.234 Z M 597.596 166.234 L 599.596 166.234 L 599.596 168.234 L 597.596 168.234 L 597.596 166.234 Z M 601.596 166.234 L 603.596 166.234 L 603.596 168.234 L 601.596 168.234 L 601.596 166.234 Z M 605.596 166.234 L 607.596 166.234 L 607.596 168.234 L 605.596 168.234 L 605.596 166.234 Z M 607.596 166.234 L 609.596 166.234 L 609.596 168.234 L 607.596 168.234 L 607.596 166.234 Z M 615.596 166.234 L 617.596 166.234 L 617.596 168.234 L 615.596 168.234 L 615.596 166.234 Z M 619.596 166.234 L 621.596 166.234 L 621.596 168.234 L 619.596 168.234 L 619.596 166.234 Z M 621.596 166.234 L 623.596 166.234 L 623.596 168.234 L 621.596 168.234 L 621.596 166.234 Z M 623.596 166.234 L 625.596 166.234 L 625.596 168.234 L 623.596 168.234 L 623.596 166.234 Z M 627.596 166.234 L 629.596 166.234 L 629.596 168.234 L 627.596 168.234 L 627.596 166.234 Z M 579.596 168.234 L 581.596 168.234 L 581.596 170.234 L 579.596 170.234 L 579.596 168.234 Z M 583.596 168.234 L 585.596 168.234 L 585.596 170.234 L 583.596 170.234 L 583.596 168.234 Z M 585.596 168.234 L 587.596 168.234 L 587.596 170.234 L 585.596 170.234 L 585.596 168.234 Z M 587.596 168.234 L 589.596 168.234 L 589.596 170.234 L 587.596 170.234 L 587.596 168.234 Z M 591.596 168.234 L 593.596 168.234 L 593.596 170.234 L 591.596 170.234 L 591.596 168.234 Z M 599.596 168.234 L 601.596 168.234 L 601.596 170.234 L 599.596 170.234 L 599.596 168.234 Z M 601.596 168.234 L 603.596 168.234 L 603.596 170.234 L 601.596 170.234 L 601.596 168.234 Z M 607.596 168.234 L 609.596 168.234 L 609.596 170.234 L 607.596 170.234 L 607.596 168.234 Z M 609.596 168.234 L 611.596 168.234 L 611.596 170.234 L 609.596 170.234 L 609.596 168.234 Z M 611.596 168.234 L 613.596 168.234 L 613.596 170.234 L 611.596 170.234 L 611.596 168.234 Z M 615.596 168.234 L 617.596 168.234 L 617.596 170.234 L 615.596 170.234 L 615.596 168.234 Z M 619.596 168.234 L 621.596 168.234 L 621.596 170.234 L 619.596 170.234 L 619.596 168.234 Z M 621.596 168.234 L 623.596 168.234 L 623.596 170.234 L 621.596 170.234 L 621.596 168.234 Z M 623.596 168.234 L 625.596 168.234 L 625.596 170.234 L 623.596 170.234 L 623.596 168.234 Z M 627.596 168.234 L 629.596 168.234 L 629.596 170.234 L 627.596 170.234 L 627.596 168.234 Z M 579.596 170.234 L 581.596 170.234 L 581.596 172.234 L 579.596 172.234 L 579.596 170.234 Z M 583.596 170.234 L 585.596 170.234 L 585.596 172.234 L 583.596 172.234 L 583.596 170.234 Z M 585.596 170.234 L 587.596 170.234 L 587.596 172.234 L 585.596 172.234 L 585.596 170.234 Z M 587.596 170.234 L 589.596 170.234 L 589.596 172.234 L 587.596 172.234 L 587.596 170.234 Z M 591.596 170.234 L 593.596 170.234 L 593.596 172.234 L 591.596 172.234 L 591.596 170.234 Z M 599.596 170.234 L 601.596 170.234 L 601.596 172.234 L 599.596 172.234 L 599.596 170.234 Z M 601.596 170.234 L 603.596 170.234 L 603.596 172.234 L 601.596 172.234 L 601.596 170.234 Z M 603.596 170.234 L 605.596 170.234 L 605.596 172.234 L 603.596 172.234 L 603.596 170.234 Z M 605.596 170.234 L 607.596 170.234 L 607.596 172.234 L 605.596 172.234 L 605.596 170.234 Z M 607.596 170.234 L 609.596 170.234 L 609.596 172.234 L 607.596 172.234 L 607.596 170.234 Z M 611.596 170.234 L 613.596 170.234 L 613.596 172.234 L 611.596 172.234 L 611.596 170.234 Z M 615.596 170.234 L 617.596 170.234 L 617.596 172.234 L 615.596 172.234 L 615.596 170.234 Z M 619.596 170.234 L 621.596 170.234 L 621.596 172.234 L 619.596 172.234 L 619.596 170.234 Z M 621.596 170.234 L 623.596 170.234 L 623.596 172.234 L 621.596 172.234 L 621.596 170.234 Z M 623.596 170.234 L 625.596 170.234 L 625.596 172.234 L 623.596 172.234 L 623.596 170.234 Z M 627.596 170.234 L 629.596 170.234 L 629.596 172.234 L 627.596 172.234 L 627.596 170.234 Z M 579.596 172.234 L 581.596 172.234 L 581.596 174.234 L 579.596 174.234 L 579.596 172.234 Z M 591.596 172.234 L 593.596 172.234 L 593.596 174.234 L 591.596 174.234 L 591.596 172.234 Z M 597.596 172.234 L 599.596 172.234 L 599.596 174.234 L 597.596 174.234 L 597.596 172.234 Z M 601.596 172.234 L 603.596 172.234 L 603.596 174.234 L 601.596 174.234 L 601.596 172.234 Z M 605.596 172.234 L 607.596 172.234 L 607.596 174.234 L 605.596 174.234 L 605.596 172.234 Z M 607.596 172.234 L 609.596 172.234 L 609.596 174.234 L 607.596 174.234 L 607.596 172.234 Z M 615.596 172.234 L 617.596 172.234 L 617.596 174.234 L 615.596 174.234 L 615.596 172.234 Z M 627.596 172.234 L 629.596 172.234 L 629.596 174.234 L 627.596 174.234 L 627.596 172.234 Z M 579.596 174.234 L 581.596 174.234 L 581.596 176.234 L 579.596 176.234 L 579.596 174.234 Z M 581.596 174.234 L 583.596 174.234 L 583.596 176.234 L 581.596 176.234 L 581.596 174.234 Z M 583.596 174.234 L 585.596 174.234 L 585.596 176.234 L 583.596 176.234 L 583.596 174.234 Z M 585.596 174.234 L 587.596 174.234 L 587.596 176.234 L 585.596 176.234 L 585.596 174.234 Z M 587.596 174.234 L 589.596 174.234 L 589.596 176.234 L 587.596 176.234 L 587.596 174.234 Z M 589.596 174.234 L 591.596 174.234 L 591.596 176.234 L 589.596 176.234 L 589.596 174.234 Z M 591.596 174.234 L 593.596 174.234 L 593.596 176.234 L 591.596 176.234 L 591.596 174.234 Z M 595.596 174.234 L 597.596 174.234 L 597.596 176.234 L 595.596 176.234 L 595.596 174.234 Z M 599.596 174.234 L 601.596 174.234 L 601.596 176.234 L 599.596 176.234 L 599.596 174.234 Z M 603.596 174.234 L 605.596 174.234 L 605.596 176.234 L 603.596 176.234 L 603.596 174.234 Z M 607.596 174.234 L 609.596 174.234 L 609.596 176.234 L 607.596 176.234 L 607.596 174.234 Z M 611.596 174.234 L 613.596 174.234 L 613.596 176.234 L 611.596 176.234 L 611.596 174.234 Z M 615.596 174.234 L 617.596 174.234 L 617.596 176.234 L 615.596 176.234 L 615.596 174.234 Z M 617.596 174.234 L 619.596 174.234 L 619.596 176.234 L 617.596 176.234 L 617.596 174.234 Z M 619.596 174.234 L 621.596 174.234 L 621.596 176.234 L 619.596 176.234 L 619.596 174.234 Z M 621.596 174.234 L 623.596 174.234 L 623.596 176.234 L 621.596 176.234 L 621.596 174.234 Z M 623.596 174.234 L 625.596 174.234 L 625.596 176.234 L 623.596 176.234 L 623.596 174.234 Z M 625.596 174.234 L 627.596 174.234 L 627.596 176.234 L 625.596 176.234 L 625.596 174.234 Z M 627.596 174.234 L 629.596 174.234 L 629.596 176.234 L 627.596 176.234 L 627.596 174.234 Z M 595.596 176.234 L 597.596 176.234 L 597.596 178.234 L 595.596 178.234 L 595.596 176.234 Z M 597.596 176.234 L 599.596 176.234 L 599.596 178.234 L 597.596 178.234 L 597.596 176.234 Z M 603.596 176.234 L 605.596 176.234 L 605.596 178.234 L 603.596 178.234 L 603.596 176.234 Z M 607.596 176.234 L 609.596 176.234 L 609.596 178.234 L 607.596 178.234 L 607.596 176.234 Z M 609.596 176.234 L 611.596 176.234 L 611.596 178.234 L 609.596 178.234 L 609.596 176.234 Z M 579.596 178.234 L 581.596 178.234 L 581.596 180.234 L 579.596 180.234 L 579.596 178.234 Z M 581.596 178.234 L 583.596 178.234 L 583.596 180.234 L 581.596 180.234 L 581.596 178.234 Z M 585.596 178.234 L 587.596 178.234 L 587.596 180.234 L 585.596 180.234 L 585.596 178.234 Z M 587.596 178.234 L 589.596 178.234 L 589.596 180.234 L 587.596 180.234 L 587.596 178.234 Z M 591.596 178.234 L 593.596 178.234 L 593.596 180.234 L 591.596 180.234 L 591.596 178.234 Z M 597.596 178.234 L 599.596 178.234 L 599.596 180.234 L 597.596 180.234 L 597.596 178.234 Z M 603.596 178.234 L 605.596 178.234 L 605.596 180.234 L 603.596 180.234 L 603.596 178.234 Z M 605.596 178.234 L 607.596 178.234 L 607.596 180.234 L 605.596 180.234 L 605.596 178.234 Z M 607.596 178.234 L 609.596 178.234 L 609.596 180.234 L 607.596 180.234 L 607.596 178.234 Z M 609.596 178.234 L 611.596 178.234 L 611.596 180.234 L 609.596 180.234 L 609.596 178.234 Z M 611.596 178.234 L 613.596 178.234 L 613.596 180.234 L 611.596 180.234 L 611.596 178.234 Z M 615.596 178.234 L 617.596 178.234 L 617.596 180.234 L 615.596 180.234 L 615.596 178.234 Z M 627.596 178.234 L 629.596 178.234 L 629.596 180.234 L 627.596 180.234 L 627.596 178.234 Z M 581.596 180.234 L 583.596 180.234 L 583.596 182.234 L 581.596 182.234 L 581.596 180.234 Z M 593.596 180.234 L 595.596 180.234 L 595.596 182.234 L 593.596 182.234 L 593.596 180.234 Z M 595.596 180.234 L 597.596 180.234 L 597.596 182.234 L 595.596 182.234 L 595.596 180.234 Z M 599.596 180.234 L 601.596 180.234 L 601.596 182.234 L 599.596 182.234 L 599.596 180.234 Z M 607.596 180.234 L 609.596 180.234 L 609.596 182.234 L 607.596 182.234 L 607.596 180.234 Z M 609.596 180.234 L 611.596 180.234 L 611.596 182.234 L 609.596 182.234 L 609.596 180.234 Z M 617.596 180.234 L 619.596 180.234 L 619.596 182.234 L 617.596 182.234 L 617.596 180.234 Z M 619.596 180.234 L 621.596 180.234 L 621.596 182.234 L 619.596 182.234 L 619.596 180.234 Z M 621.596 180.234 L 623.596 180.234 L 623.596 182.234 L 621.596 182.234 L 621.596 180.234 Z M 623.596 180.234 L 625.596 180.234 L 625.596 182.234 L 623.596 182.234 L 623.596 180.234 Z M 625.596 180.234 L 627.596 180.234 L 627.596 182.234 L 625.596 182.234 L 625.596 180.234 Z M 585.596 182.234 L 587.596 182.234 L 587.596 184.234 L 585.596 184.234 L 585.596 182.234 Z M 591.596 182.234 L 593.596 182.234 L 593.596 184.234 L 591.596 184.234 L 591.596 182.234 Z M 597.596 182.234 L 599.596 182.234 L 599.596 184.234 L 597.596 184.234 L 597.596 182.234 Z M 603.596 182.234 L 605.596 182.234 L 605.596 184.234 L 603.596 184.234 L 603.596 182.234 Z M 607.596 182.234 L 609.596 182.234 L 609.596 184.234 L 607.596 184.234 L 607.596 182.234 Z M 609.596 182.234 L 611.596 182.234 L 611.596 184.234 L 609.596 184.234 L 609.596 182.234 Z M 617.596 182.234 L 619.596 182.234 L 619.596 184.234 L 617.596 184.234 L 617.596 182.234 Z M 621.596 182.234 L 623.596 182.234 L 623.596 184.234 L 621.596 184.234 L 621.596 182.234 Z M 627.596 182.234 L 629.596 182.234 L 629.596 184.234 L 627.596 184.234 L 627.596 182.234 Z M 583.596 184.234 L 585.596 184.234 L 585.596 186.234 L 583.596 186.234 L 583.596 184.234 Z M 585.596 184.234 L 587.596 184.234 L 587.596 186.234 L 585.596 186.234 L 585.596 184.234 Z M 587.596 184.234 L 589.596 184.234 L 589.596 186.234 L 587.596 186.234 L 587.596 184.234 Z M 589.596 184.234 L 591.596 184.234 L 591.596 186.234 L 589.596 186.234 L 589.596 184.234 Z M 593.596 184.234 L 595.596 184.234 L 595.596 186.234 L 593.596 186.234 L 593.596 184.234 Z M 595.596 184.234 L 597.596 184.234 L 597.596 186.234 L 595.596 186.234 L 595.596 184.234 Z M 607.596 184.234 L 609.596 184.234 L 609.596 186.234 L 607.596 186.234 L 607.596 184.234 Z M 609.596 184.234 L 611.596 184.234 L 611.596 186.234 L 609.596 186.234 L 609.596 184.234 Z M 617.596 184.234 L 619.596 184.234 L 619.596 186.234 L 617.596 186.234 L 617.596 184.234 Z M 621.596 184.234 L 623.596 184.234 L 623.596 186.234 L 621.596 186.234 L 621.596 184.234 Z M 623.596 184.234 L 625.596 184.234 L 625.596 186.234 L 623.596 186.234 L 623.596 184.234 Z M 625.596 184.234 L 627.596 184.234 L 627.596 186.234 L 625.596 186.234 L 625.596 184.234 Z M 627.596 184.234 L 629.596 184.234 L 629.596 186.234 L 627.596 186.234 L 627.596 184.234 Z M 579.596 186.234 L 581.596 186.234 L 581.596 188.234 L 579.596 188.234 L 579.596 186.234 Z M 581.596 186.234 L 583.596 186.234 L 583.596 188.234 L 581.596 188.234 L 581.596 186.234 Z M 583.596 186.234 L 585.596 186.234 L 585.596 188.234 L 583.596 188.234 L 583.596 186.234 Z M 589.596 186.234 L 591.596 186.234 L 591.596 188.234 L 589.596 188.234 L 589.596 186.234 Z M 591.596 186.234 L 593.596 186.234 L 593.596 188.234 L 591.596 188.234 L 591.596 186.234 Z M 593.596 186.234 L 595.596 186.234 L 595.596 188.234 L 593.596 188.234 L 593.596 186.234 Z M 595.596 186.234 L 597.596 186.234 L 597.596 188.234 L 595.596 188.234 L 595.596 186.234 Z M 597.596 186.234 L 599.596 186.234 L 599.596 188.234 L 597.596 188.234 L 597.596 186.234 Z M 599.596 186.234 L 601.596 186.234 L 601.596 188.234 L 599.596 188.234 L 599.596 186.234 Z M 605.596 186.234 L 607.596 186.234 L 607.596 188.234 L 605.596 188.234 L 605.596 186.234 Z M 607.596 186.234 L 609.596 186.234 L 609.596 188.234 L 607.596 188.234 L 607.596 186.234 Z M 611.596 186.234 L 613.596 186.234 L 613.596 188.234 L 611.596 188.234 L 611.596 186.234 Z M 615.596 186.234 L 617.596 186.234 L 617.596 188.234 L 615.596 188.234 L 615.596 186.234 Z M 617.596 186.234 L 619.596 186.234 L 619.596 188.234 L 617.596 188.234 L 617.596 186.234 Z M 627.596 186.234 L 629.596 186.234 L 629.596 188.234 L 627.596 188.234 L 627.596 186.234 Z M 579.596 188.234 L 581.596 188.234 L 581.596 190.234 L 579.596 190.234 L 579.596 188.234 Z M 585.596 188.234 L 587.596 188.234 L 587.596 190.234 L 585.596 190.234 L 585.596 188.234 Z M 589.596 188.234 L 591.596 188.234 L 591.596 190.234 L 589.596 190.234 L 589.596 188.234 Z M 593.596 188.234 L 595.596 188.234 L 595.596 190.234 L 593.596 190.234 L 593.596 188.234 Z M 595.596 188.234 L 597.596 188.234 L 597.596 190.234 L 595.596 190.234 L 595.596 188.234 Z M 597.596 188.234 L 599.596 188.234 L 599.596 190.234 L 597.596 190.234 L 597.596 188.234 Z M 599.596 188.234 L 601.596 188.234 L 601.596 190.234 L 599.596 190.234 L 599.596 188.234 Z M 603.596 188.234 L 605.596 188.234 L 605.596 190.234 L 603.596 190.234 L 603.596 188.234 Z M 609.596 188.234 L 611.596 188.234 L 611.596 190.234 L 609.596 190.234 L 609.596 188.234 Z M 619.596 188.234 L 621.596 188.234 L 621.596 190.234 L 619.596 190.234 L 619.596 188.234 Z M 625.596 188.234 L 627.596 188.234 L 627.596 190.234 L 625.596 190.234 L 625.596 188.234 Z M 579.596 190.234 L 581.596 190.234 L 581.596 192.234 L 579.596 192.234 L 579.596 190.234 Z M 581.596 190.234 L 583.596 190.234 L 583.596 192.234 L 581.596 192.234 L 581.596 190.234 Z M 587.596 190.234 L 589.596 190.234 L 589.596 192.234 L 587.596 192.234 L 587.596 190.234 Z M 589.596 190.234 L 591.596 190.234 L 591.596 192.234 L 589.596 192.234 L 589.596 190.234 Z M 591.596 190.234 L 593.596 190.234 L 593.596 192.234 L 591.596 192.234 L 591.596 190.234 Z M 593.596 190.234 L 595.596 190.234 L 595.596 192.234 L 593.596 192.234 L 593.596 190.234 Z M 595.596 190.234 L 597.596 190.234 L 597.596 192.234 L 595.596 192.234 L 595.596 190.234 Z M 597.596 190.234 L 599.596 190.234 L 599.596 192.234 L 597.596 192.234 L 597.596 190.234 Z M 599.596 190.234 L 601.596 190.234 L 601.596 192.234 L 599.596 192.234 L 599.596 190.234 Z M 607.596 190.234 L 609.596 190.234 L 609.596 192.234 L 607.596 192.234 L 607.596 190.234 Z M 609.596 190.234 L 611.596 190.234 L 611.596 192.234 L 609.596 192.234 L 609.596 190.234 Z M 613.596 190.234 L 615.596 190.234 L 615.596 192.234 L 613.596 192.234 L 613.596 190.234 Z M 619.596 190.234 L 621.596 190.234 L 621.596 192.234 L 619.596 192.234 L 619.596 190.234 Z M 621.596 190.234 L 623.596 190.234 L 623.596 192.234 L 621.596 192.234 L 621.596 190.234 Z M 623.596 190.234 L 625.596 190.234 L 625.596 192.234 L 623.596 192.234 L 623.596 190.234 Z M 625.596 190.234 L 627.596 190.234 L 627.596 192.234 L 625.596 192.234 L 625.596 190.234 Z M 627.596 190.234 L 629.596 190.234 L 629.596 192.234 L 627.596 192.234 L 627.596 190.234 Z M 579.596 192.234 L 581.596 192.234 L 581.596 194.234 L 579.596 194.234 L 579.596 192.234 Z M 593.596 192.234 L 595.596 192.234 L 595.596 194.234 L 593.596 194.234 L 593.596 192.234 Z M 599.596 192.234 L 601.596 192.234 L 601.596 194.234 L 599.596 194.234 L 599.596 192.234 Z M 603.596 192.234 L 605.596 192.234 L 605.596 194.234 L 603.596 194.234 L 603.596 192.234 Z M 605.596 192.234 L 607.596 192.234 L 607.596 194.234 L 605.596 194.234 L 605.596 192.234 Z M 607.596 192.234 L 609.596 192.234 L 609.596 194.234 L 607.596 194.234 L 607.596 192.234 Z M 613.596 192.234 L 615.596 192.234 L 615.596 194.234 L 613.596 194.234 L 613.596 192.234 Z M 617.596 192.234 L 619.596 192.234 L 619.596 194.234 L 617.596 194.234 L 617.596 192.234 Z M 621.596 192.234 L 623.596 192.234 L 623.596 194.234 L 621.596 194.234 L 621.596 192.234 Z M 623.596 192.234 L 625.596 192.234 L 625.596 194.234 L 623.596 194.234 L 623.596 192.234 Z M 627.596 192.234 L 629.596 192.234 L 629.596 194.234 L 627.596 194.234 L 627.596 192.234 Z M 579.596 194.234 L 581.596 194.234 L 581.596 196.234 L 579.596 196.234 L 579.596 194.234 Z M 585.596 194.234 L 587.596 194.234 L 587.596 196.234 L 585.596 196.234 L 585.596 194.234 Z M 587.596 194.234 L 589.596 194.234 L 589.596 196.234 L 587.596 196.234 L 587.596 194.234 Z M 589.596 194.234 L 591.596 194.234 L 591.596 196.234 L 589.596 196.234 L 589.596 194.234 Z M 591.596 194.234 L 593.596 194.234 L 593.596 196.234 L 591.596 196.234 L 591.596 194.234 Z M 595.596 194.234 L 597.596 194.234 L 597.596 196.234 L 595.596 196.234 L 595.596 194.234 Z M 599.596 194.234 L 601.596 194.234 L 601.596 196.234 L 599.596 196.234 L 599.596 194.234 Z M 601.596 194.234 L 603.596 194.234 L 603.596 196.234 L 601.596 196.234 L 601.596 194.234 Z M 603.596 194.234 L 605.596 194.234 L 605.596 196.234 L 603.596 196.234 L 603.596 194.234 Z M 609.596 194.234 L 611.596 194.234 L 611.596 196.234 L 609.596 196.234 L 609.596 194.234 Z M 611.596 194.234 L 613.596 194.234 L 613.596 196.234 L 611.596 196.234 L 611.596 194.234 Z M 613.596 194.234 L 615.596 194.234 L 615.596 196.234 L 613.596 196.234 L 613.596 194.234 Z M 615.596 194.234 L 617.596 194.234 L 617.596 196.234 L 615.596 196.234 L 615.596 194.234 Z M 617.596 194.234 L 619.596 194.234 L 619.596 196.234 L 617.596 196.234 L 617.596 194.234 Z M 619.596 194.234 L 621.596 194.234 L 621.596 196.234 L 619.596 196.234 L 619.596 194.234 Z M 623.596 194.234 L 625.596 194.234 L 625.596 196.234 L 623.596 196.234 L 623.596 194.234 Z M 625.596 194.234 L 627.596 194.234 L 627.596 196.234 L 625.596 196.234 L 625.596 194.234 Z M 595.596 196.234 L 597.596 196.234 L 597.596 198.234 L 595.596 198.234 L 595.596 196.234 Z M 597.596 196.234 L 599.596 196.234 L 599.596 198.234 L 597.596 198.234 L 597.596 196.234 Z M 599.596 196.234 L 601.596 196.234 L 601.596 198.234 L 599.596 198.234 L 599.596 196.234 Z M 601.596 196.234 L 603.596 196.234 L 603.596 198.234 L 601.596 198.234 L 601.596 196.234 Z M 611.596 196.234 L 613.596 196.234 L 613.596 198.234 L 611.596 198.234 L 611.596 196.234 Z M 619.596 196.234 L 621.596 196.234 L 621.596 198.234 L 619.596 198.234 L 619.596 196.234 Z M 623.596 196.234 L 625.596 196.234 L 625.596 198.234 L 623.596 198.234 L 623.596 196.234 Z M 625.596 196.234 L 627.596 196.234 L 627.596 198.234 L 625.596 198.234 L 625.596 196.234 Z M 579.596 198.234 L 581.596 198.234 L 581.596 200.234 L 579.596 200.234 L 579.596 198.234 Z M 581.596 198.234 L 583.596 198.234 L 583.596 200.234 L 581.596 200.234 L 581.596 198.234 Z M 583.596 198.234 L 585.596 198.234 L 585.596 200.234 L 583.596 200.234 L 583.596 198.234 Z M 585.596 198.234 L 587.596 198.234 L 587.596 200.234 L 585.596 200.234 L 585.596 198.234 Z M 587.596 198.234 L 589.596 198.234 L 589.596 200.234 L 587.596 200.234 L 587.596 198.234 Z M 589.596 198.234 L 591.596 198.234 L 591.596 200.234 L 589.596 200.234 L 589.596 198.234 Z M 591.596 198.234 L 593.596 198.234 L 593.596 200.234 L 591.596 200.234 L 591.596 198.234 Z M 603.596 198.234 L 605.596 198.234 L 605.596 200.234 L 603.596 200.234 L 603.596 198.234 Z M 605.596 198.234 L 607.596 198.234 L 607.596 200.234 L 605.596 200.234 L 605.596 198.234 Z M 607.596 198.234 L 609.596 198.234 L 609.596 200.234 L 607.596 200.234 L 607.596 198.234 Z M 611.596 198.234 L 613.596 198.234 L 613.596 200.234 L 611.596 200.234 L 611.596 198.234 Z M 615.596 198.234 L 617.596 198.234 L 617.596 200.234 L 615.596 200.234 L 615.596 198.234 Z M 619.596 198.234 L 621.596 198.234 L 621.596 200.234 L 619.596 200.234 L 619.596 198.234 Z M 627.596 198.234 L 629.596 198.234 L 629.596 200.234 L 627.596 200.234 L 627.596 198.234 Z M 579.596 200.234 L 581.596 200.234 L 581.596 202.234 L 579.596 202.234 L 579.596 200.234 Z M 591.596 200.234 L 593.596 200.234 L 593.596 202.234 L 591.596 202.234 L 591.596 200.234 Z M 601.596 200.234 L 603.596 200.234 L 603.596 202.234 L 601.596 202.234 L 601.596 200.234 Z M 605.596 200.234 L 607.596 200.234 L 607.596 202.234 L 605.596 202.234 L 605.596 200.234 Z M 609.596 200.234 L 611.596 200.234 L 611.596 202.234 L 609.596 202.234 L 609.596 200.234 Z M 611.596 200.234 L 613.596 200.234 L 613.596 202.234 L 611.596 202.234 L 611.596 200.234 Z M 619.596 200.234 L 621.596 200.234 L 621.596 202.234 L 619.596 202.234 L 619.596 200.234 Z M 579.596 202.234 L 581.596 202.234 L 581.596 204.234 L 579.596 204.234 L 579.596 202.234 Z M 583.596 202.234 L 585.596 202.234 L 585.596 204.234 L 583.596 204.234 L 583.596 202.234 Z M 585.596 202.234 L 587.596 202.234 L 587.596 204.234 L 585.596 204.234 L 585.596 202.234 Z M 587.596 202.234 L 589.596 202.234 L 589.596 204.234 L 587.596 204.234 L 587.596 202.234 Z M 591.596 202.234 L 593.596 202.234 L 593.596 204.234 L 591.596 204.234 L 591.596 202.234 Z M 595.596 202.234 L 597.596 202.234 L 597.596 204.234 L 595.596 204.234 L 595.596 202.234 Z M 597.596 202.234 L 599.596 202.234 L 599.596 204.234 L 597.596 204.234 L 597.596 202.234 Z M 599.596 202.234 L 601.596 202.234 L 601.596 204.234 L 599.596 204.234 L 599.596 202.234 Z M 601.596 202.234 L 603.596 202.234 L 603.596 204.234 L 601.596 204.234 L 601.596 202.234 Z M 605.596 202.234 L 607.596 202.234 L 607.596 204.234 L 605.596 204.234 L 605.596 202.234 Z M 609.596 202.234 L 611.596 202.234 L 611.596 204.234 L 609.596 204.234 L 609.596 202.234 Z M 611.596 202.234 L 613.596 202.234 L 613.596 204.234 L 611.596 204.234 L 611.596 202.234 Z M 613.596 202.234 L 615.596 202.234 L 615.596 204.234 L 613.596 204.234 L 613.596 202.234 Z M 615.596 202.234 L 617.596 202.234 L 617.596 204.234 L 615.596 204.234 L 615.596 202.234 Z M 617.596 202.234 L 619.596 202.234 L 619.596 204.234 L 617.596 204.234 L 617.596 202.234 Z M 619.596 202.234 L 621.596 202.234 L 621.596 204.234 L 619.596 204.234 L 619.596 202.234 Z M 627.596 202.234 L 629.596 202.234 L 629.596 204.234 L 627.596 204.234 L 627.596 202.234 Z M 579.596 204.234 L 581.596 204.234 L 581.596 206.234 L 579.596 206.234 L 579.596 204.234 Z M 583.596 204.234 L 585.596 204.234 L 585.596 206.234 L 583.596 206.234 L 583.596 204.234 Z M 585.596 204.234 L 587.596 204.234 L 587.596 206.234 L 585.596 206.234 L 585.596 204.234 Z M 587.596 204.234 L 589.596 204.234 L 589.596 206.234 L 587.596 206.234 L 587.596 204.234 Z M 591.596 204.234 L 593.596 204.234 L 593.596 206.234 L 591.596 206.234 L 591.596 204.234 Z M 595.596 204.234 L 597.596 204.234 L 597.596 206.234 L 595.596 206.234 L 595.596 204.234 Z M 603.596 204.234 L 605.596 204.234 L 605.596 206.234 L 603.596 206.234 L 603.596 204.234 Z M 605.596 204.234 L 607.596 204.234 L 607.596 206.234 L 605.596 206.234 L 605.596 204.234 Z M 611.596 204.234 L 613.596 204.234 L 613.596 206.234 L 611.596 206.234 L 611.596 204.234 Z M 613.596 204.234 L 615.596 204.234 L 615.596 206.234 L 613.596 206.234 L 613.596 204.234 Z M 615.596 204.234 L 617.596 204.234 L 617.596 206.234 L 615.596 206.234 L 615.596 204.234 Z M 625.596 204.234 L 627.596 204.234 L 627.596 206.234 L 625.596 206.234 L 625.596 204.234 Z M 627.596 204.234 L 629.596 204.234 L 629.596 206.234 L 627.596 206.234 L 627.596 204.234 Z M 579.596 206.234 L 581.596 206.234 L 581.596 208.234 L 579.596 208.234 L 579.596 206.234 Z M 583.596 206.234 L 585.596 206.234 L 585.596 208.234 L 583.596 208.234 L 583.596 206.234 Z M 585.596 206.234 L 587.596 206.234 L 587.596 208.234 L 585.596 208.234 L 585.596 206.234 Z M 587.596 206.234 L 589.596 206.234 L 589.596 208.234 L 587.596 208.234 L 587.596 206.234 Z M 591.596 206.234 L 593.596 206.234 L 593.596 208.234 L 591.596 208.234 L 591.596 206.234 Z M 599.596 206.234 L 601.596 206.234 L 601.596 208.234 L 599.596 208.234 L 599.596 206.234 Z M 601.596 206.234 L 603.596 206.234 L 603.596 208.234 L 601.596 208.234 L 601.596 206.234 Z M 605.596 206.234 L 607.596 206.234 L 607.596 208.234 L 605.596 208.234 L 605.596 206.234 Z M 611.596 206.234 L 613.596 206.234 L 613.596 208.234 L 611.596 208.234 L 611.596 206.234 Z M 613.596 206.234 L 615.596 206.234 L 615.596 208.234 L 613.596 208.234 L 613.596 206.234 Z M 619.596 206.234 L 621.596 206.234 L 621.596 208.234 L 619.596 208.234 L 619.596 206.234 Z M 621.596 206.234 L 623.596 206.234 L 623.596 208.234 L 621.596 208.234 L 621.596 206.234 Z M 623.596 206.234 L 625.596 206.234 L 625.596 208.234 L 623.596 208.234 L 623.596 206.234 Z M 625.596 206.234 L 627.596 206.234 L 627.596 208.234 L 625.596 208.234 L 625.596 206.234 Z M 627.596 206.234 L 629.596 206.234 L 629.596 208.234 L 627.596 208.234 L 627.596 206.234 Z M 579.596 208.234 L 581.596 208.234 L 581.596 210.234 L 579.596 210.234 L 579.596 208.234 Z M 591.596 208.234 L 593.596 208.234 L 593.596 210.234 L 591.596 210.234 L 591.596 208.234 Z M 595.596 208.234 L 597.596 208.234 L 597.596 210.234 L 595.596 210.234 L 595.596 208.234 Z M 601.596 208.234 L 603.596 208.234 L 603.596 210.234 L 601.596 210.234 L 601.596 208.234 Z M 603.596 208.234 L 605.596 208.234 L 605.596 210.234 L 603.596 210.234 L 603.596 208.234 Z M 605.596 208.234 L 607.596 208.234 L 607.596 210.234 L 605.596 210.234 L 605.596 208.234 Z M 615.596 208.234 L 617.596 208.234 L 617.596 210.234 L 615.596 210.234 L 615.596 208.234 Z M 617.596 208.234 L 619.596 208.234 L 619.596 210.234 L 617.596 210.234 L 617.596 208.234 Z M 619.596 208.234 L 621.596 208.234 L 621.596 210.234 L 619.596 210.234 L 619.596 208.234 Z M 623.596 208.234 L 625.596 208.234 L 625.596 210.234 L 623.596 210.234 L 623.596 208.234 Z M 625.596 208.234 L 627.596 208.234 L 627.596 210.234 L 625.596 210.234 L 625.596 208.234 Z M 627.596 208.234 L 629.596 208.234 L 629.596 210.234 L 627.596 210.234 L 627.596 208.234 Z M 579.596 210.234 L 581.596 210.234 L 581.596 212.234 L 579.596 212.234 L 579.596 210.234 Z M 581.596 210.234 L 583.596 210.234 L 583.596 212.234 L 581.596 212.234 L 581.596 210.234 Z M 583.596 210.234 L 585.596 210.234 L 585.596 212.234 L 583.596 212.234 L 583.596 210.234 Z M 585.596 210.234 L 587.596 210.234 L 587.596 212.234 L 585.596 212.234 L 585.596 210.234 Z M 587.596 210.234 L 589.596 210.234 L 589.596 212.234 L 587.596 212.234 L 587.596 210.234 Z M 589.596 210.234 L 591.596 210.234 L 591.596 212.234 L 589.596 212.234 L 589.596 210.234 Z M 591.596 210.234 L 593.596 210.234 L 593.596 212.234 L 591.596 212.234 L 591.596 210.234 Z M 595.596 210.234 L 597.596 210.234 L 597.596 212.234 L 595.596 212.234 L 595.596 210.234 Z M 597.596 210.234 L 599.596 210.234 L 599.596 212.234 L 597.596 212.234 L 597.596 210.234 Z M 601.596 210.234 L 603.596 210.234 L 603.596 212.234 L 601.596 212.234 L 601.596 210.234 Z M 603.596 210.234 L 605.596 210.234 L 605.596 212.234 L 603.596 212.234 L 603.596 210.234 Z M 605.596 210.234 L 607.596 210.234 L 607.596 212.234 L 605.596 212.234 L 605.596 210.234 Z M 611.596 210.234 L 613.596 210.234 L 613.596 212.234 L 611.596 212.234 L 611.596 210.234 Z M 621.596 210.234 L 623.596 210.234 L 623.596 212.234 L 621.596 212.234 L 621.596 210.234 Z M 627.596 210.234 L 629.596 210.234 L 629.596 212.234 L 627.596 212.234 L 627.596 210.234 Z" stroke="transparent" fill="black" style="stroke-width: 1;"/>
  </g>
</svg>