<svg xmlns="http://www.w3.org/2000/svg" xmlns:xlink="http://www.w3.org/1999/xlink" width="512" zoomAndPan="magnify" viewBox="0 0 384 383.999986" height="512" preserveAspectRatio="xMidYMid meet" version="1.2"><g id="8f0f196c26"><path style=" stroke:none;fill-rule:nonzero;fill:#1a1a1a;fill-opacity:1;" d="M 67.558594 263.382812 C 55.953125 294.476562 48.394531 326.980469 45.097656 359.980469 C 43.777344 373.164062 56.765625 383.125 69.144531 378.480469 C 75.347656 376.976562 91.449219 366.234375 113.316406 374.4375 C 117.75 375.796875 126.664062 380.761719 140.996094 380.753906 C 157.410156 380.753906 169.230469 373.5625 170.289062 373.167969 C 193.847656 361.386719 213.453125 373.671875 214.113281 373.832031 C 229.605469 381.566406 248.308594 382.105469 264.183594 375.296875 C 274.898438 370.714844 286.886719 370.214844 297.941406 373.894531 L 314.644531 379.464844 C 320.414062 381.386719 326.703125 380.265625 331.453125 376.46875 C 339.832031 369.773438 337.925781 360.445312 337.992188 359.984375 C 325.292969 233.027344 256.195312 160.898438 245.886719 142.675781 L 263.808594 103.25 C 271.085938 87.257812 270.035156 68.710938 260.988281 53.640625 C 258.339844 48.871094 256.863281 47.746094 256.863281 45.152344 L 256.863281 18.785156 C 256.863281 8.9375 248.855469 0.929688 239.003906 0.929688 C 229.148438 0.929688 221.140625 8.9375 221.140625 18.785156 C 220.710938 42.648438 222.242188 44.925781 219.726562 47.867188 L 196 75.542969 C 193.730469 78.183594 189.351562 78.179688 187.089844 75.542969 C 163.523438 47.332031 161.945312 47.855469 161.945312 44.050781 L 161.945312 18.785156 C 161.945312 8.9375 153.933594 0.929688 144.082031 0.929688 C 134.230469 0.929688 126.21875 8.9375 126.21875 18.785156 C 125.835938 56.085938 127.785156 42.179688 122.09375 53.640625 C 113.050781 68.710938 111.996094 87.257812 119.269531 103.25 L 129.886719 126.605469 C 111.011719 131.722656 108.914062 151.101562 125.917969 158.648438 C 119.257812 169.152344 89.703125 204.066406 67.558594 263.382812 Z M 132.390625 59.804688 C 134.292969 56.074219 138.222656 52.253906 138.222656 45.144531 L 138.222656 18.777344 C 138.222656 15.542969 140.851562 12.914062 144.085938 12.914062 C 147.320312 12.914062 149.953125 15.542969 149.953125 18.777344 L 149.953125 44.042969 C 149.953125 48.289062 151.472656 52.414062 154.246094 55.660156 L 177.980469 83.339844 C 181.382812 87.304688 186.324219 89.578125 191.542969 89.578125 C 196.761719 89.578125 201.703125 87.304688 205.105469 83.339844 L 228.839844 55.652344 C 231.609375 52.414062 233.132812 48.289062 233.132812 44.039062 L 233.132812 18.773438 C 233.132812 15.539062 235.761719 12.910156 238.996094 12.910156 C 242.230469 12.910156 244.863281 15.539062 244.863281 18.773438 L 244.863281 45.140625 C 244.863281 52.164062 248.652344 55.796875 250.695312 59.800781 C 257.710938 71.484375 258.527344 85.867188 252.882812 98.273438 L 235.136719 137.316406 L 196.105469 137.316406 C 192.878906 130.355469 184.25 125.457031 173.738281 125.457031 C 166.242188 125.457031 160.003906 130.023438 155.941406 134.054688 C 152.757812 130.890625 148.238281 127.414062 142.816406 126.046875 L 130.1875 98.269531 C 124.558594 85.878906 125.375 71.488281 132.390625 59.804688 Z M 163.695312 143.324219 C 166.308594 140.566406 170.144531 137.460938 173.753906 137.460938 C 180.84375 137.460938 185.550781 140.988281 185.550781 143.324219 C 185.550781 145.65625 180.84375 149.1875 173.753906 149.1875 C 170.144531 149.1875 166.304688 146.078125 163.695312 143.324219 Z M 138.152344 137.457031 C 141.757812 137.457031 145.59375 140.566406 148.210938 143.320312 C 145.59375 146.078125 141.761719 149.183594 138.152344 149.183594 C 131.058594 149.183594 126.351562 145.652344 126.351562 143.320312 C 126.351562 140.984375 131.058594 137.457031 138.152344 137.457031 Z M 138.847656 161.132812 C 140.316406 161.078125 141.738281 160.863281 143.097656 160.503906 L 132.535156 188.65625 C 131.375 191.753906 132.941406 195.214844 136.046875 196.378906 C 139.171875 197.542969 142.613281 195.953125 143.773438 192.867188 L 155.617188 161.28125 L 162.125 180.796875 C 163.171875 183.9375 166.570312 185.628906 169.714844 184.585938 C 172.859375 183.539062 174.554688 180.144531 173.507812 177 L 167.914062 160.226562 C 177.464844 163.21875 191.632812 158.976562 196.113281 149.304688 L 235.902344 149.304688 C 246.289062 167.625 313.722656 237.835938 326.058594 361.144531 L 326.136719 361.925781 C 326.5625 366.125 322.527344 369.425781 318.445312 368.070312 L 301.746094 362.503906 C 287.902344 357.894531 272.886719 358.511719 259.460938 364.257812 C 246.78125 369.695312 231.84375 369.261719 219.496094 363.09375 L 218.171875 362.429688 C 188.78125 347.734375 163.011719 363.570312 162.296875 363.746094 C 139.570312 375.105469 120.621094 363.792969 117.539062 363.1875 C 90.746094 353.148438 70.570312 365.925781 64.945312 367.234375 C 60.902344 368.757812 56.609375 365.503906 57.042969 361.15625 C 60.238281 329.175781 67.558594 297.6875 78.804688 267.558594 C 100.867188 208.46875 130.332031 174.457031 138.847656 161.132812 Z M 138.847656 161.132812 "/></g></svg>