<svg xmlns="http://www.w3.org/2000/svg" xmlns:xlink="http://www.w3.org/1999/xlink" width="512" zoomAndPan="magnify" viewBox="0 0 384 383.999986" height="512" preserveAspectRatio="xMidYMid meet" version="1.2"><defs><clipPath id="6a3ffe61ac"><path d="M 47.28125 0 L 336.78125 0 L 336.78125 384 L 47.28125 384 Z M 47.28125 0 "/></clipPath></defs><g id="ff1cff519d"><g clip-rule="nonzero" clip-path="url(#6a3ffe61ac)"><path style=" stroke:none;fill-rule:nonzero;fill:#000000;fill-opacity:1;" d="M 325.402344 142.136719 C 317.921875 118.636719 307.242188 95.414062 294.570312 74.976562 C 280.925781 52.964844 265.066406 34.617188 248.804688 21.921875 C 248.414062 21.617188 248.003906 21.332031 247.605469 21.042969 C 244.3125 18.636719 240.996094 16.261719 237.542969 14.085938 C 234.253906 12.015625 230.851562 10.132812 227.34375 8.457031 C 224.015625 6.871094 220.605469 5.457031 217.117188 4.269531 C 213.765625 3.128906 210.339844 2.214844 206.863281 1.554688 C 205.144531 1.226562 203.417969 0.960938 201.6875 0.730469 C 199.566406 0.445312 197.457031 0.167969 195.316406 0.0820312 C 193.984375 0.03125 192.652344 0.0234375 191.320312 0.046875 C 190.222656 0.046875 189.121094 0.109375 188.023438 0.167969 C 184.46875 0.363281 180.898438 0.667969 177.390625 1.285156 C 173.746094 1.925781 170.183594 2.933594 166.699219 4.167969 C 163.101562 5.441406 159.570312 6.921875 156.117188 8.554688 C 152.445312 10.292969 148.878906 12.25 145.453125 14.445312 C 141.839844 16.761719 138.320312 19.285156 134.9375 21.929688 C 118.707031 34.628906 103.027344 52.984375 89.40625 74.996094 C 76.761719 95.429688 66.132812 118.667969 58.671875 142.167969 C 51.230469 165.605469 47.292969 188.195312 47.292969 207.441406 C 47.292969 237.300781 51.097656 264.128906 58.597656 287.0625 C 65.691406 308.757812 76.15625 327.363281 89.695312 342.117188 C 114.667969 369.335938 149.9375 383.964844 191.691406 383.964844 L 196.570312 383.964844 C 236.667969 382.945312 270.152344 368.285156 294.332031 341.941406 C 307.878906 327.183594 318.410156 308.636719 325.511719 286.941406 C 333.019531 264.007812 336.820312 237.238281 336.820312 207.382812 C 336.820312 188.136719 332.863281 165.574219 325.402344 142.136719 Z M 192.4375 373.96875 L 190.824219 373.96875 C 105.636719 373.5625 56.808594 312.894531 56.808594 207.382812 C 56.808594 169.941406 72.78125 119.933594 97.496094 79.984375 C 125.222656 35.171875 159.648438 9.46875 191.941406 9.46875 C 224.273438 9.46875 258.75 35.171875 286.535156 79.988281 C 311.3125 119.945312 327.320312 169.949219 327.320312 207.382812 C 327.320312 313.25 278.15625 373.96875 192.4375 373.96875 Z M 192.4375 373.96875 "/></g><path style=" stroke:none;fill-rule:nonzero;fill:#000000;fill-opacity:1;" d="M 125.449219 76.09375 C 123.296875 74.585938 120.332031 75.105469 118.820312 77.253906 C 116.28125 80.871094 113.773438 84.675781 111.371094 88.5625 C 109.597656 91.425781 107.84375 94.394531 106.15625 97.382812 C 104.863281 99.671875 105.671875 102.570312 107.960938 103.863281 C 108.699219 104.28125 109.5 104.480469 110.292969 104.480469 C 111.953125 104.480469 113.566406 103.609375 114.441406 102.058594 C 116.066406 99.179688 117.753906 96.324219 119.460938 93.566406 C 121.769531 89.835938 124.171875 86.1875 126.609375 82.71875 C 128.117188 80.570312 127.597656 77.601562 125.449219 76.09375 Z M 125.449219 76.09375 "/><path style=" stroke:none;fill-rule:nonzero;fill:#000000;fill-opacity:1;" d="M 104.742188 110 C 102.382812 108.851562 99.535156 109.835938 98.386719 112.199219 C 92.4375 124.433594 87.355469 137.136719 83.285156 149.953125 C 80.265625 159.460938 77.875 168.8125 76.175781 177.738281 C 75.683594 180.320312 77.378906 182.808594 79.957031 183.300781 C 80.257812 183.359375 80.558594 183.386719 80.851562 183.386719 C 83.09375 183.386719 85.085938 181.796875 85.523438 179.515625 C 87.148438 170.960938 89.449219 161.980469 92.355469 152.832031 C 96.285156 140.449219 101.195312 128.179688 106.941406 116.359375 C 108.089844 113.996094 107.105469 111.148438 104.742188 110 Z M 104.742188 110 "/></g></svg>