<svg xmlns="http://www.w3.org/2000/svg" xmlns:xlink="http://www.w3.org/1999/xlink" width="512" zoomAndPan="magnify" viewBox="0 0 384 383.999986" height="512" preserveAspectRatio="xMidYMid meet" version="1.2"><defs><clipPath id="cb09fe4b18"><path d="M 4.703125 13 L 383 13 L 383 375.664062 L 4.703125 375.664062 Z M 4.703125 13 "/></clipPath></defs><g id="fb432c457d"><g clip-rule="nonzero" clip-path="url(#cb09fe4b18)"><path style=" stroke:none;fill-rule:nonzero;fill:#000000;fill-opacity:1;" d="M 91.3125 375.066406 L 44.070312 375.066406 C 22.355469 375.066406 4.703125 357.429688 4.703125 335.738281 L 4.703125 209.894531 C 4.703125 188.203125 22.355469 170.566406 44.070312 170.566406 L 122.804688 170.566406 C 127.152344 170.566406 130.679688 174.089844 130.679688 178.433594 L 130.679688 181.4375 L 132.550781 180.476562 L 177.917969 82.335938 L 177.917969 28.992188 C 177.917969 26.601562 179.003906 24.335938 180.878906 22.84375 C 181.367188 22.464844 193.066406 13.261719 209.414062 13.261719 C 227.632812 13.261719 256.652344 42.066406 256.652344 76.183594 C 256.652344 97.703125 248.9375 124.492188 244.121094 139.105469 L 341.386719 139.105469 C 362.582031 139.105469 380.613281 154.773438 382.457031 174.769531 C 383.480469 185.984375 379.730469 196.757812 372.378906 204.796875 C 378.867188 211.292969 382.628906 220.101562 382.628906 229.558594 C 382.628906 243.195312 374.816406 255.183594 363.195312 261.035156 C 365.605469 265.847656 366.882812 271.179688 366.882812 276.75 C 366.882812 290.386719 359.054688 302.390625 347.433594 308.226562 C 351.023438 315.398438 352.078125 323.65625 350.269531 331.867188 C 346.742188 347.789062 331.734375 359.335938 314.585938 359.335938 L 170.046875 359.335938 C 159.101562 359.335938 141.464844 355.792969 128.363281 349.0625 C 122.882812 364.210938 108.332031 375.066406 91.3125 375.066406 Z M 44.070312 186.296875 C 31.046875 186.296875 20.449219 196.886719 20.449219 209.894531 L 20.449219 335.738281 C 20.449219 348.746094 31.046875 359.335938 44.070312 359.335938 L 91.3125 359.335938 C 104.335938 359.335938 114.933594 348.746094 114.933594 335.738281 C 114.933594 332.5625 116.851562 329.683594 119.796875 328.472656 C 122.726562 327.273438 126.128906 327.9375 128.378906 330.167969 C 135.8125 337.609375 157.257812 343.601562 170.046875 343.601562 L 314.585938 343.601562 C 324.414062 343.601562 332.949219 337.25 334.882812 328.472656 C 336.441406 321.421875 334.363281 314.582031 329.183594 309.703125 C 326.949219 307.597656 326.144531 304.402344 327.105469 301.492188 C 328.082031 298.582031 330.648438 296.523438 333.6875 296.160156 C 343.625 295.011719 351.136719 286.675781 351.136719 276.75 C 351.136719 271.335938 348.914062 266.273438 344.914062 262.511719 C 342.679688 260.40625 341.875 257.210938 342.835938 254.300781 C 343.8125 251.390625 346.378906 249.332031 349.417969 248.96875 C 359.371094 247.820312 366.882812 239.484375 366.882812 229.558594 C 366.882812 222.226562 362.757812 215.558594 356.09375 212.175781 C 353.574219 210.871094 351.9375 208.320312 351.828125 205.472656 C 351.71875 202.625 353.152344 199.953125 355.558594 198.472656 C 363.292969 193.707031 367.605469 185.179688 366.773438 176.214844 C 365.667969 164.226562 354.519531 154.835938 341.386719 154.835938 L 233.035156 154.835938 C 230.449219 154.835938 228.027344 153.5625 226.546875 151.441406 C 225.082031 149.300781 224.765625 146.578125 225.679688 144.171875 C 225.820312 143.777344 240.90625 103.871094 240.90625 76.183594 C 240.90625 50.417969 218.042969 28.992188 209.414062 28.992188 C 202.625 28.992188 196.941406 31.445312 193.667969 33.257812 L 193.667969 84.050781 C 193.667969 85.183594 193.414062 86.316406 192.941406 87.351562 L 145.699219 189.601562 C 144.945312 191.222656 143.667969 192.542969 142.078125 193.328125 L 126.332031 201.195312 C 123.875 202.390625 120.980469 202.25 118.679688 200.863281 C 116.347656 199.417969 114.933594 196.886719 114.933594 194.164062 L 114.933594 186.296875 Z M 44.070312 186.296875 "/></g><path style=" stroke:none;fill-rule:nonzero;fill:#000000;fill-opacity:1;" d="M 122.804688 343.601562 C 118.460938 343.601562 114.933594 340.078125 114.933594 335.738281 L 114.933594 194.164062 C 114.933594 189.820312 118.460938 186.296875 122.804688 186.296875 C 127.152344 186.296875 130.679688 189.820312 130.679688 194.164062 L 130.679688 335.738281 C 130.679688 340.078125 127.152344 343.601562 122.804688 343.601562 Z M 122.804688 343.601562 "/></g></svg>